<svg xmlns="http://www.w3.org/2000/svg" xmlns:xlink="http://www.w3.org/1999/xlink" width="744" height="744" viewBox="0 0 744 744">
  <defs>
    <style>
      .cls-1 {
        fill-rule: evenodd;
        fill: url(#linear-gradient);
      }
    </style>
    <linearGradient id="linear-gradient" x1="111.34" y1="744.438" x2="632.973" y2="-0.531" gradientUnits="userSpaceOnUse">
      <stop offset="0" stop-color="#0cb74b"/>
      <stop offset="1" stop-color="#21ef4c"/>
    </linearGradient>
  </defs>
  <path class="cls-1" d="M54.107,744.4a2.171,2.171,0,0,1,.206-0.481v-0.2h0.069v-0.138H54.45l0.069-.411h0.069v-0.138h0.069l0.069-.411h0.069v-0.138h0.069l0.069-.411H55v-0.137h0.069l0.069-.412H55.2v-0.206h0.069v-0.137h0.069l0.069-.412h0.069v-0.137h0.069l0.069-.412h0.069v-0.137h0.069l0.137-.618h0.069v-0.137h0.069l0.069-.412h0.069v-0.137h0.069l0.137-.618H56.44v-0.137h0.069l0.069-.411h0.069v-0.138h0.069l0.069-.411h0.069v-0.138H56.92l0.069-.411c0.9-2.05,1.575-4.331,2.47-6.382l0.137-.618h0.069v-0.137h0.069l0.069-.412H59.87v-0.137h0.069l0.069-.411h0.069V728.27h0.069l0.069-.411h0.069v-0.138H60.35l0.069-.411h0.069v-0.138h0.069v-0.205h0.069v-0.206c0.666-1.519,1.19-3.218,1.852-4.735,0.023-.137.046-0.274,0.069-0.412h0.069v-0.137h0.069l0.069-.412h0.069v-0.206h0.069v-0.137h0.069l0.069-.411h0.069v-0.138h0.069l0.069-.411H63.3v-0.138h0.069l0.069-.411h0.069v-0.138h0.069l0.069-.411h0.069v-0.138H63.78l0.069-.411h0.069v-0.138h0.069v-0.2h0.069v-0.206h0.069v-0.138h0.069l0.137-.617H64.4v-0.137h0.069l0.069-.412H64.6v-0.137h0.069l0.069-.412h0.069v-0.137h0.069l0.069-.412h0.069v-0.137h0.069l0.069-.412H65.22v-0.137h0.069l0.069-.412h0.069v-0.137h0.069l0.069-.412h0.069V713.38H65.7l0.069-.412h0.069v-0.137h0.069l0.069-.412h0.069v-0.206h0.069v-0.137h0.069V711.87h0.069v-0.205c1.149-2.624,2.007-5.532,3.156-8.166l0.137-.618H69.61v-0.137h0.069l0.069-.412h0.069V702.2h0.069l0.069-.412h0.069v-0.137h0.069l0.069-.412h0.069V701.1H70.3l0.069-.412h0.069v-0.137H70.5c0.023-.137.046-0.274,0.069-0.412h0.069V700h0.069v-0.206h0.069v-0.205h0.069V699.45h0.069l0.137-.617H71.12V698.7h0.069l0.069-.411h0.069v-0.137h0.069l0.069-.412h0.069V697.6H71.6l0.069-.412h0.069v-0.137h0.069c0.023-.138.046-0.275,0.069-0.412h0.069V696.5h0.069c0.023-.138.046-0.275,0.069-0.412h0.069v-0.137h0.069l0.069-.412h0.069V695.4h0.069l0.069-.412H72.56v-0.137h0.069l0.069-.412h0.069v-0.206h0.069V694.1H72.9v-0.206h0.069v-0.206c0.976-2.229,1.7-4.7,2.675-6.93l0.069-.412h0.069v-0.137h0.069l0.137-.618h0.069v-0.137h0.069l0.069-.412h0.069V684.9h0.069l0.069-.412H76.47v-0.137h0.069l0.069-.412h0.069v-0.137h0.069c0.023-.137.046-0.274,0.069-0.412h0.069v-0.137H76.95c0.023-.137.046-0.274,0.069-0.412h0.069v-0.137h0.069l0.069-.411h0.069v-0.138h0.069l0.137-.617c1.131-2.585,1.959-5.442,3.087-8.029l0.137-.617h0.069v-0.138H80.86l0.069-.411H81v-0.137h0.069l0.069-.412H81.2V671.66h0.069l0.069-.412h0.069v-0.137h0.069l0.069-.412h0.069v-0.137h0.069l0.069-.412h0.069v-0.137h0.069l0.069-.412h0.069v-0.137H82.1l0.137-.618H82.3v-0.137H82.37l0.069-.412h0.069V668.16h0.069l0.069-.412h0.069v-0.137h0.069l0.069-.412c0.9-2.05,1.575-4.33,2.469-6.381l0.137-.618h0.069v-0.137h0.069l0.069-.412h0.069v-0.137H85.8c0.023-.137.046-0.274,0.069-0.412h0.069v-0.137h0.069c0.023-.137.046-0.274,0.069-0.412h0.069v-0.137h0.069L86.28,658h0.069v-0.137h0.069l0.069-.412h0.069v-0.137h0.069l0.069-.412H86.76v-0.137h0.069l0.069-.411h0.069V656.22h0.069v-0.206H87.1l0.069-.411c1.053-2.408,1.831-5.071,2.881-7.48l0.137-.617h0.069v-0.138h0.069l0.069-.411h0.069v-0.138h0.069l0.069-.411c0.82-1.871,1.446-3.96,2.264-5.833l0.069-.412H93v-0.137h0.069l0.069-.412h0.069v-0.137h0.069v-0.206h0.069l0.069-.411c0.556-1.272,1.023-2.708,1.578-3.98l0.137-.618H95.2v-0.137h0.069l0.069-.412H95.4v-0.137h0.069l0.069-.412h0.069v-0.137h0.069l0.069-.412h0.069v-0.137h0.069l0.069-.412h0.069v-0.137h0.069c0.023-.137.046-0.274,0.069-0.412h0.069V631.38h0.069c0.023-.137.046-0.274,0.069-0.412h0.069v-0.137H96.5l0.069-.411h0.069v-0.206h0.069v-0.138h0.069v-0.205h0.069v-0.206h0.069v-0.138h0.069l0.069-.411h0.069v-0.137h0.069v-0.206h0.069v-0.206h0.069V628.43h0.069l0.069-.412H97.53v-0.137H97.6l0.069-.412h0.069v-0.137H97.8l0.069-.412h0.069v-0.137H98.01l0.069-.412h0.069v-0.137h0.069c0.023-.138.046-0.275,0.069-0.412h0.069v-0.206h0.069v-0.137H98.49v-0.206h0.069v-0.206h0.069V624.93H98.7l0.069-.412h0.069v-0.137H98.9l0.069-.412h0.069v-0.137h0.069c0.023-.137.046-0.274,0.069-0.412h0.069v-0.137h0.069c0.023-.137.046-0.274,0.069-0.412h0.069v-0.137h0.069l0.069-.412h0.069v-0.137h0.069l0.137-.617c1.131-2.586,1.959-5.442,3.087-8.029,0.046-.206.091-0.412,0.137-0.617h0.069v-0.138h0.068l0.069-.411h0.069v-0.138h0.068l0.069-.411h0.068v-0.138h0.069c0.023-.137.046-0.274,0.068-0.411h0.069v-0.137h0.069c0.023-.138.045-0.275,0.068-0.412h0.069v-0.137h0.069c0.022-.138.045-0.275,0.068-0.412h0.069V610.04h0.068v-0.206h0.069v-0.206h0.068v-0.137h0.069q0.069-.309.137-0.618h0.069v-0.137h0.068l0.069-.412h0.069v-0.137h0.068l0.069-.412h0.068v-0.137h0.069l0.069-.412h0.068v-0.137h0.069c0.023-.137.046-0.274,0.068-0.412h0.069V606.54h0.069c0.023-.137.045-0.274,0.068-0.412h0.069v-0.137h0.068v-0.206h0.069v-0.206c1.006-2.3,1.741-4.839,2.744-7.136l0.069-.412h0.068v-0.137h0.069c0.023-.137.045-0.274,0.068-0.412h0.069v-0.137h0.069c0.022-.137.045-0.274,0.068-0.412h0.069V596.8h0.068l0.069-.412h0.069v-0.137H109.4q0.069-.309.137-0.617H109.6v-0.138h0.069c0.022-.137.045-0.274,0.068-0.411h0.069v-0.138h0.068l0.069-.411h0.069v-0.138h0.068l0.069-.411h0.068v-0.138h0.069c0.023-.137.046-0.274,0.068-0.411h0.069V593.3H110.5c0.023-.138.045-0.275,0.068-0.412h0.069v-0.137H110.7l0.069-.412h0.069V592.2h0.068l0.069-.412h0.068v-0.206h0.069v-0.137h0.069c0.023-.137.045-0.275,0.068-0.412h0.069V590.9h0.068l0.069-.412h0.069v-0.137h0.068l0.069-.412h0.068V589.8H111.8l0.069-.412h0.068v-0.137H112c0.023-.137.046-0.275,0.068-0.412h0.069V588.7h0.069v-0.206h0.068v-0.206h0.069V588.15h0.068l0.138-.617h0.068V587.4h0.069c0.023-.137.046-0.274,0.068-0.411h0.069v-0.138H112.9c0.022-.137.045-0.274,0.068-0.411h0.069V586.3H113.1l0.069-.411h0.069v-0.138h0.068l0.069-.411h0.068V585.2h0.069l0.069-.412h0.068v-0.137h0.069v-0.206h0.068v-0.206h0.069V584.1h0.069c0.022-.138.045-0.275,0.068-0.412h0.069v-0.137h0.068l0.069-.412h0.069v-0.206h0.068V582.8h0.069c0.023-.137.046-0.275,0.068-0.412h0.069v-0.137h0.069c0.022-.137.045-0.275,0.068-0.412h0.069V581.7h0.068l0.069-.412h0.069v-0.137h0.068l0.069-.412h0.068V580.6h0.069l0.069-.412h0.068v-0.137h0.069v-0.206H115.5v-0.206h0.069V579.5h0.069q0.068-.309.137-0.617c1.131-2.585,1.958-5.442,3.087-8.029,0.022-.137.045-0.274,0.068-0.412H119v-0.205h0.068V570.1h0.069V569.9h0.069v-0.205h0.068v-0.138h0.069c0.023-.137.046-0.274,0.068-0.411h0.069v-0.138h0.069c0.022-.137.045-0.274,0.068-0.411h0.069v-0.138h0.068l0.069-.411h0.069v-0.138h0.068l0.069-.411H120.1v-0.137h0.069l0.069-.412H120.3V566.81h0.069V566.6h0.068V566.4h0.069v-0.137h0.069q0.068-.309.137-0.618c1.053-2.408,1.83-5.07,2.881-7.479,0.046-.206.091-0.412,0.137-0.618H123.8v-0.137h0.068L123.94,557h0.068V556.86h0.069l0.069-.412h0.068v-0.137h0.069c0.023-.137.046-0.275,0.068-0.412h0.069v-0.137h0.069c0.023-.137.045-0.275,0.068-0.412h0.069v-0.137h0.068l0.069-.412h0.069v-0.137H124.9l0.069-.412h0.068v-0.137h0.069l0.069-.412h0.068v-0.137h0.069c0.046-.206.091-0.412,0.137-0.618h0.069v-0.137h0.068l0.069-.411h0.068v-0.138h0.069l0.069-.411h0.068v-0.138H126c0.023-.137.046-0.274,0.068-0.411h0.069v-0.138H126.2c0.022-.137.045-0.274,0.068-0.411h0.069v-0.138h0.068l0.069-.411h0.069v-0.137h0.068l0.069-.412h0.068v-0.137h0.069c0.046-.206.091-0.412,0.137-0.618,1.131-2.585,1.959-5.442,3.087-8.028q0.069-.309.137-0.618h0.069v-0.137h0.068l0.069-.412h0.069v-0.137h0.068l0.069-.412h0.068v-0.137h0.069l0.069-.412h0.068V538.47h0.069c0.023-.137.046-0.275,0.068-0.412h0.069v-0.137h0.069c0.023-.137.045-0.275,0.068-0.412h0.069v-0.137h0.068l0.069-.412h0.069v-0.137h0.068l0.069-.412h0.068v-0.137h0.069q0.069-.309.137-0.617c1.054-2.408,1.831-5.071,2.881-7.48l0.138-.618h0.068v-0.137h0.069c0.023-.137.045-0.274,0.068-0.411h0.069v-0.138h0.069c0.022-.137.045-0.274,0.068-0.411H135.4v-0.138h0.068l0.069-.411c0.82-1.872,1.446-3.961,2.264-5.833,0.023-.137.045-0.274,0.068-0.412h0.069v-0.137H138l0.138-.618h0.068v-0.137h0.069c0.023-.137.046-0.274,0.068-0.412,0.664-1.515,1.189-3.214,1.853-4.734,0.022-.137.045-0.275,0.068-0.412h0.069v-0.137H140.4l0.069-.412h0.069v-0.137h0.068v-0.206h0.069V512.12c0.586-1.337,1.062-2.849,1.646-4.186l0.069-.411h0.068v-0.138h0.069v-0.2H142.6v-0.206h0.068v-0.138h0.069c0.023-.137.045-0.274,0.068-0.411h0.069v-0.137h0.068l0.138-.618h0.068v-0.137h0.069c0.023-.138.046-0.275,0.068-0.412h0.069v-0.137h0.069c0.023-.137.045-0.275,0.068-0.412h0.069v-0.137h0.068l0.069-.412h0.069v-0.137h0.068l0.069-.412h0.068v-0.137h0.069v-0.206h0.069v-0.206h0.068v-0.137h0.069c0.023-.137.046-0.275,0.068-0.412h0.069v-0.137h0.069q0.068-.309.137-0.618h0.068v-0.137h0.069l0.069-.412h0.068v-0.137h0.069c0.023-.137.046-0.274,0.068-0.411h0.069v-0.138h0.069c0.022-.137.045-0.274,0.068-0.411h0.069v-0.138h0.068l0.069-.411h0.069v-0.138h0.068l0.069-.411h0.068v-0.138h0.069l0.069-.411h0.068V498.19h0.069c0.046-.2.091-0.411,0.137-0.617,1.053-2.408,1.829-5.07,2.881-7.48l0.069-.411h0.068v-0.138h0.069c0.023-.137.046-0.274,0.068-0.411h0.069v-0.206h0.069V488.79h0.068l0.069-.412H149.6v-0.137h0.069l0.069-.412H149.8v-0.137h0.069c0.023-.137.046-0.275,0.068-0.412h0.069v-0.137h0.069c0.023-.137.045-0.275,0.068-0.412h0.069v-0.137h0.068l0.069-.412h0.069v-0.137h0.068v-0.206h0.069v-0.206h0.068V485.5h0.069l0.069-.412h0.068v-0.137H150.9c0.023-.137.046-0.274,0.068-0.412h0.069v-0.206H151.1v-0.137h0.068l0.069-.412h0.068v-0.137h0.069l0.069-.411h0.068v-0.138h0.069c0.023-.137.046-0.274,0.068-0.411h0.069v-0.138h0.069c0.022-.137.045-0.274,0.068-0.411h0.069V482H152l0.069-.411h0.069v-0.138H152.2v-0.2h0.069v-0.206h0.068V480.9h0.069l0.069-.411h0.068v-0.206h0.069v-0.137h0.068v-0.206h0.069v-0.206h0.069V479.6h0.068l0.069-.412h0.068v-0.137h0.069l0.069-.412h0.068V478.5H153.3c0.023-.137.046-0.275,0.068-0.412h0.069v-0.137h0.069c0.022-.137.045-0.275,0.068-0.412h0.069V477.4h0.068l0.069-.412h0.069V476.85h0.068q0.069-.309.137-0.618c1.131-2.584,1.959-5.441,3.087-8.028q0.069-.309.137-0.618h0.069v-0.137h0.069c0.022-.137.045-0.274,0.068-0.412h0.069V466.9h0.068l0.069-.412h0.069v-0.137h0.068l0.069-.412h0.068V465.8h0.069l0.069-.411h0.068v-0.138h0.069c0.023-.137.046-0.274,0.068-0.411h0.069V464.7h0.069c0.022-.137.045-0.274,0.068-0.411h0.069v-0.138h0.068v-0.2h0.069v-0.206c0.51-1.164.934-2.477,1.441-3.637,0.022-.137.045-0.275,0.068-0.412H160.3v-0.137h0.068l0.069-.412H160.5V458.94c1.13-2.585,1.958-5.441,3.086-8.028l0.138-.618h0.068v-0.137h0.069c0.023-.137.046-0.274,0.068-0.412H164v-0.137h0.069c0.022-.137.045-0.274,0.068-0.412h0.069v-0.137h0.068l0.069-.411h0.069V448.51h0.068l0.069-.411h0.068v-0.138h0.069l0.069-.411h0.068v-0.138h0.069c0.023-.137.046-0.274,0.068-0.411h0.069v-0.138H165.1q0.068-.307.137-0.617H165.3v-0.137h0.069l0.069-.412c1.054-2.407,1.83-5.071,2.881-7.48q0.067-.308.137-0.617h0.068v-0.137H168.6l0.069-.412h0.068v-0.137H168.8c0.023-.138.046-0.275,0.068-0.412h0.069v-0.137h0.069c0.022-.138.045-0.275,0.068-0.412h0.069v-0.137h0.068l0.069-.412h0.069v-0.137h0.068l0.069-.412h0.068v-0.137h0.069l0.069-.412h0.068v-0.137h0.069c0.023-.137.046-0.275,0.068-0.412h0.069V433.62h0.069q0.067-.309.137-0.618c0.975-2.228,1.7-4.7,2.675-6.93l0.069-.412h0.068v-0.137h0.069l0.069-.412h0.068v-0.137h0.069v-0.206h0.068l0.069-.412c0.9-2.049,1.574-4.33,2.469-6.381l0.069-.412h0.069v-0.137h0.068l0.069-.412h0.068v-0.137h0.069v-0.206h0.069c0.023-.137.045-0.275,0.068-0.412h0.069v-0.137h0.068l0.069-.412h0.069v-0.137h0.068l0.069-.412H176.9v-0.137h0.069l0.069-.412H177.1v-0.137h0.069c0.023-.137.046-0.274,0.068-0.412h0.069v-0.137h0.069c0.022-.137.045-0.274,0.068-0.411h0.069v-0.138h0.068v-0.206h0.069v-0.2h0.069v-0.138h0.068l0.069-.411h0.068v-0.138H178l0.069-.411h0.068v-0.206H178.2v-0.137h0.068l0.069-.412h0.069v-0.137h0.068l0.069-.412h0.068v-0.137h0.069l0.069-.412h0.068v-0.137h0.069c0.023-.138.045-0.275,0.068-0.412h0.069v-0.137h0.069c0.022-.137.045-0.275,0.068-0.412h0.069V408.78H179.3v-0.206h0.069v-0.206h0.069v-0.137H179.5q0.069-.309.137-0.618h0.069v-0.137h0.069c0.022-.137.045-0.274,0.068-0.412h0.069v-0.137h0.068l0.069-.412h0.069v-0.137h0.068l0.069-.412h0.068v-0.137H180.4c0.023-.137.046-0.274,0.068-0.412h0.069V405.28H180.6c0.023-.137.045-0.274,0.068-0.412h0.069v-0.137h0.068v-0.206h0.069v-0.2c1.006-2.3,1.741-4.839,2.744-7.137l0.069-.412h0.068v-0.137h0.069c0.023-.137.046-0.274,0.068-0.412h0.069v-0.137h0.069c0.022-.137.045-0.274,0.068-0.411h0.069v-0.138h0.068l0.069-.411h0.069v-0.138h0.068q0.069-.308.137-0.617h0.069v-0.137h0.069c0.022-.138.045-0.275,0.068-0.412h0.069v-0.137h0.068l0.069-.412h0.069v-0.137h0.068l0.069-.412h0.068v-0.137h0.069l0.069-.412h0.068v-0.137h0.069c0.023-.137.045-0.275,0.068-0.412h0.069v-0.137h0.069c0.022-.137.045-0.275,0.068-0.412h0.069v-0.137h0.068l0.138-.618h0.068v-0.137h0.069c0.023-.137.045-0.274,0.068-0.412h0.069v-0.137h0.069c0.022-.137.045-0.274,0.068-0.412,0.9-2.05,1.574-4.331,2.47-6.381,0.023-.137.045-0.275,0.068-0.412h0.069v-0.137h0.068l0.138-.618h0.068v-0.137h0.069c0.023-.137.046-0.274,0.068-0.412h0.069v-0.137h0.069c0.022-.137.045-0.274,0.068-0.412h0.069V380.44h0.068l0.069-.412H190v-0.137h0.068l0.069-.412h0.068v-0.137h0.069l0.069-.412h0.068v-0.137h0.069c0.023-.137.046-0.274,0.068-0.411h0.069v-0.138h0.069c0.045-.206.091-0.411,0.137-0.617,0.975-2.229,1.7-4.7,2.675-6.931l0.069-.412h0.068v-0.137H193.7c0.023-.137.046-0.274,0.068-0.411h0.069V369.6h0.069v-0.206h0.068l0.069-.411c0.556-1.272,1.023-2.708,1.578-3.98q0.067-.309.137-0.618h0.068v-0.137H195.9l0.069-.412h0.068V363.7h0.069c0.023-.137.046-0.274,0.068-0.412h0.069v-0.137h0.069c0.022-.137.045-0.274,0.068-0.412h0.069V362.6h0.068l0.069-.412h0.069V362.05h0.068l0.069-.412h0.068V361.5h0.069l0.069-.412h0.068v-0.137h0.069c0.023-.137.045-0.274,0.068-0.411h0.069v-0.206h0.069V360.2h0.068v-0.2h0.069v-0.206h0.068v-0.137h0.069l0.069-.412h0.068V359.1h0.069v-0.206h0.068v-0.206h0.069v-0.137h0.069c0.022-.138.045-0.275,0.068-0.412h0.069V358h0.068l0.069-.412h0.069v-0.137h0.068l0.069-.412h0.068V356.9h0.069c0.046-.206.091-0.412,0.137-0.618h0.069v-0.137h0.068l0.069-.412h0.069V355.6h0.068v-0.206h0.069v-0.206h0.068v-0.137h0.069l0.069-.412h0.068V354.5h0.069c0.023-.137.045-0.274,0.068-0.412h0.069v-0.137h0.068l0.069-.412h0.069V353.4h0.068l0.069-.412h0.068v-0.137h0.069l0.069-.411h0.068v-0.138h0.069c0.046-.206.091-0.411,0.137-0.617,1.131-2.586,1.959-5.442,3.087-8.029l0.069-.411h0.068v-0.206h0.069v-0.138h0.068v-0.2h0.069v-0.206c0.819-1.871,1.446-3.96,2.264-5.833,0.023-.137.045-0.274,0.068-0.412h0.069v-0.137H206.4c0.022-.137.045-0.274,0.068-0.412h0.069v-0.137H206.6v-0.206h0.069c0.023-.137.046-0.274,0.068-0.411h0.069v-0.138h0.069c0.023-.137.045-0.274,0.068-0.411h0.069v-0.138h0.068l0.069-.411h0.069v-0.137h0.068l0.069-.412h0.068v-0.137h0.069l0.069-.412h0.068v-0.137H207.7c0.023-.138.046-0.275,0.068-0.412h0.069v-0.137H207.9v-0.206h0.068v-0.206h0.069v-0.137h0.068l0.069-.412h0.069v-0.137h0.068l0.069-.412h0.068v-0.206h0.069v-0.137h0.069c0.022-.137.045-0.275,0.068-0.412h0.069v-0.137H208.8l0.069-.412h0.069v-0.137H209l0.069-.412h0.068v-0.137h0.069l0.069-.412h0.068v-0.137h0.069c0.023-.137.046-0.274,0.068-0.412h0.069v-0.137h0.069V327.26h0.068v-0.206h0.069v-0.137h0.068l0.138-.617c1.13-2.585,1.958-5.442,3.086-8.029l0.069-.412h0.069v-0.2h0.068v-0.138h0.069v-0.205h0.068v-0.206h0.069v-0.138h0.069c0.023-.137.045-0.274,0.068-0.411h0.069v-0.138h0.068l0.069-.411h0.069v-0.138h0.068l0.069-.411h0.068v-0.137h0.069l0.069-.412h0.068v-0.137h0.069c0.023-.138.046-0.275,0.068-0.412h0.069v-0.137h0.069v-0.206h0.068v-0.206H214.7v-0.137h0.068l0.138-.618c1.053-2.408,1.83-5.07,2.881-7.479q0.067-.309.137-0.618h0.069v-0.137h0.068l0.069-.412h0.068v-0.137h0.069l0.069-.412H218.4v-0.137h0.069c0.023-.137.045-0.275,0.068-0.412h0.069v-0.137h0.068l0.069-.412h0.069v-0.137h0.068l0.069-.412h0.068v-0.137h0.069l0.069-.412h0.068v-0.137h0.069c0.023-.137.046-0.274,0.068-0.412h0.069v-0.137H219.5q0.067-.309.137-0.617c0.662-1.517,1.191-3.214,1.852-4.735v-0.206h0.069v-0.206h0.068v-0.137h0.069c0.023-.137.046-0.275,0.068-0.412h0.069v-0.137H221.9c0.022-.137.045-0.274,0.068-0.412h0.069V293.98H222.1l0.069-.412h0.069v-0.137h0.068l0.069-.412h0.068v-0.137h0.069l0.069-.412h0.068v-0.137h0.069v-0.206h0.068l0.069-.411h0.069v-0.138H223l0.069-.411h0.068v-0.138H223.2l0.069-.411h0.068V290.48h0.069c0.023-.137.045-0.274,0.068-0.411h0.069v-0.137h0.069c0.022-.138.045-0.275,0.068-0.412h0.069V284.1a6.576,6.576,0,0,0-.412-2.2V281.56H223.27v-0.275H223.2v-0.274h-0.069v-0.274h-0.068L223,280.119h-0.068l-0.069-.549h-0.069q-0.1-.618-0.2-1.235c-0.534-1.65-.772-3.562-1.3-5.215q-0.1-.584-0.206-1.167h-0.068V271.61h-0.069v-0.274h-0.068v-0.275H220.8v-0.274h-0.069v-0.343c-0.508-1.566-.73-3.374-1.234-4.941q-0.1-.584-0.206-1.166h-0.069v-0.344h-0.068v-0.274h-0.069v-0.274h-0.069V263.17h-0.068v-0.343c-0.537-1.65-.772-3.565-1.3-5.215q-0.1-.584-0.206-1.167H217.37q-0.1-.617-0.206-1.235c-0.414-1.274-.617-2.77-1.029-4.048v-0.343h-0.068v-0.275H216V250.27H215.93V250h-0.069v-0.343c-0.385-1.182-.56-2.594-0.96-3.774l-0.069-.618c-0.385-1.182-.56-2.593-0.96-3.774l-0.069-.617c-0.263-.808-0.412-1.8-0.686-2.608l-0.069-.617H212.98v-0.275h-0.069V237.1h-0.068V236.82h-0.069l-0.069-.617h-0.068v-0.275h-0.069v-0.274H212.5v-0.343h-0.069v-0.275h-0.068v-0.274h-0.069v-0.275h-0.069c-0.023-.206-0.045-0.411-0.068-0.617h-0.069V233.6H212.02v-0.343c-0.537-1.649-.771-3.563-1.3-5.215q-0.034-.309-0.068-0.617c-0.373-1.091-.522-2.407-0.892-3.5l-0.069-.618c-0.263-.808-0.411-1.8-0.686-2.607q-0.035-.309-0.068-0.618c-0.292-.9-0.452-1.987-0.755-2.882l-0.069-.617h-0.068V216.3h-0.069v-0.274H207.9v-0.343h-0.069v-0.275h-0.069v-0.274H207.7v-0.275h-0.069v-0.343c-0.536-1.648-.771-3.565-1.3-5.215v-0.343h-0.069v-0.275h-0.068v-0.274H206.12v-0.274h-0.069q-0.033-.309-0.068-0.618h-0.069v-0.274h-0.068l-0.069-.618c-0.4-1.18-.577-2.585-0.96-3.774v-0.343h-0.069v-0.275H204.68v-0.274h-0.069v-0.275h-0.069v-0.343c-0.384-1.182-.56-2.593-0.96-3.774l-0.069-.617c-0.263-.809-0.411-1.8-0.686-2.608q-0.033-.309-0.068-0.617H202.69v-0.275h-0.068v-0.274h-0.069V192.9h-0.069q-0.033-.309-0.068-0.617h-0.069v-0.275h-0.068v-0.274H202.21v-0.344h-0.069V191.12h-0.068v-0.274H202v-0.275h-0.068l-0.069-.618H201.8v-0.274H201.73v-0.343c-0.537-1.649-.771-3.563-1.3-5.215l-0.069-.618c-0.372-1.09-.521-2.406-0.892-3.5q-0.034-.309-0.068-0.618c-0.263-.808-0.412-1.8-0.686-2.607l-0.069-.618h-0.069v-0.274h-0.068v-0.275h-0.069v-0.274h-0.068l-0.069-.618h-0.069v-0.274h-0.068v-0.275h-0.069v-0.343h-0.068v-0.274h-0.069v-0.275h-0.069v-0.274H197.82l-0.069-.618h-0.068v-0.274h-0.069v-0.344c-0.536-1.648-.771-3.562-1.3-5.215l-0.069-.617c-0.275-.806-0.425-1.8-0.686-2.608v-0.343h-0.069v-0.274h-0.068v-0.275H195.35v-0.274h-0.068l-0.069-.618h-0.069v-0.274h-0.068V161h-0.069v-0.343h-0.068v-0.274H194.87V160.1H194.8V159.83h-0.068l-0.069-.618H194.6v-0.274h-0.069V158.6c-0.536-1.649-.771-3.563-1.3-5.216q-0.1-.582-0.206-1.166h-0.069V151.87h-0.068V151.6h-0.069v-0.274h-0.068v-0.275h-0.069l-0.069-.617h-0.068v-0.275h-0.069v-0.343c-0.536-1.648-.771-3.562-1.3-5.215q-0.1-.584-0.206-1.166h-0.069v-0.343h-0.068v-0.275h-0.069v-0.274h-0.068v-0.275h-0.069l-0.069-.617H190.48v-0.275h-0.069v-0.343h-0.068v-0.274h-0.069v-0.275h-0.069v-0.274h-0.068l-0.069-.618H190v-0.274h-0.069v-0.275h-0.069V138.7h-0.068v-0.274h-0.069v-0.275h-0.068v-0.274h-0.069l-0.069-.618h-0.068V136.98h-0.069v-0.344c-0.536-1.648-.771-3.562-1.3-5.215v-0.343H188.01V130.8h-0.068v-0.275h-0.069v-0.274H187.8v-0.343c-0.536-1.651-.771-3.565-1.3-5.215q-0.1-.618-0.206-1.235c-0.414-1.274-.617-2.771-1.029-4.049V119.07H185.2V118.8h-0.069v-0.274h-0.068v-0.274h-0.069V117.9c-0.385-1.182-.56-2.593-0.96-3.774l-0.069-.617c-0.263-.808-0.412-1.8-0.686-2.608l-0.069-.617H183.14v-0.275h-0.069v-0.274H183v-0.275h-0.069l-0.069-.617H182.8v-0.275h-0.069V108.3H182.66v-0.343h-0.069v-0.275h-0.069v-0.274h-0.068V107.13h-0.069c-0.023-.206-0.046-0.411-0.068-0.617h-0.069v-0.275h-0.069V105.9c-0.536-1.649-.771-3.563-1.3-5.215l-0.069-.618c-0.4-1.177-.578-2.59-0.96-3.774V95.945h-0.068V95.671H179.71V95.4h-0.069V95.122h-0.068V94.779c-0.385-1.183-.561-2.6-0.961-3.774q-0.033-.309-0.068-0.617c-0.385-1.183-.561-2.6-0.961-3.774Q177.55,86.3,177.515,86c-0.262-.8-0.414-1.8-0.686-2.608l-0.069-.618h-0.068V82.5h-0.069V82.222h-0.069V81.947h-0.068l-0.069-.618h-0.068V81.055H176.28V80.781h-0.069V80.437h-0.068V80.163h-0.069V79.888h-0.068V79.545h-0.069V79.271h-0.069V79H175.8V78.722h-0.069V78.379c-0.536-1.648-.771-3.565-1.3-5.215V72.821h-0.069V72.546h-0.068V72.272h-0.069V72h-0.069V71.654c-0.415-1.277-.618-2.773-1.028-4.049q-0.1-.618-0.206-1.235c-0.537-1.649-.771-3.563-1.3-5.215q-0.1-.583-0.205-1.166h-0.069V59.646h-0.069V59.371H171.2V59.1h-0.069V58.822h-0.068L171,58.2h-0.069V57.93h-0.068V57.587c-0.537-1.649-.771-3.563-1.3-5.215V52.029h-0.068V51.755H169.42V51.48h-0.068V51.206h-0.069V50.863c-0.414-1.273-.619-2.775-1.029-4.048V46.471h-0.069V46.2h-0.068V45.922h-0.069V45.648H167.98V45.3c-0.387-1.188-.56-2.593-0.961-3.774-0.023-.206-0.045-0.412-0.068-0.617-0.264-.81-0.413-1.8-0.686-2.607l-0.069-.618h-0.068V37.413h-0.069V37.139H165.99V36.864h-0.068l-0.069-.618h-0.068V35.972h-0.069V35.629h-0.069V35.355h-0.068V35.08H165.51V34.806h-0.068l-0.069-.618H165.3V33.914h-0.068V33.639h-0.069V33.3c-0.537-1.65-.771-3.565-1.3-5.215V27.738h-0.069V27.464h-0.068V27.189h-0.069V26.846h-0.069V26.571h-0.068V26.3h-0.069V26.023h-0.068V25.679c-0.474-1.456-.7-3.14-1.167-4.6q-0.1-.583-0.205-1.167h-0.069q-0.1-.583-0.206-1.166h-0.068V18.406H161.6V18.131c-0.184-.54-0.3-1.234-0.48-1.784l-0.069-.549h-0.068V15.524h-0.069V15.181h-0.068V14.906h-0.069V14.632h-0.069V14.357H160.64V14.014h-0.069V13.74H160.5V13.465h-0.069V13.191h-0.069c-0.023-.206-0.045-0.412-0.068-0.618h-0.069V12.3H160.16V11.956c-0.657-2.025-.944-4.346-1.578-6.382V5.162h-0.069V4.888h-0.068V4.613h-0.069V4.27h-0.069V4h-0.068V3.721H158.17Q158.135,3.412,158.1,3.1C157.828,2.3,157.688,1.3,157.416.5l-0.069-.618h-0.069V-0.4H157.21V-0.465h0.068a1.534,1.534,0,0,1,.755-0.069H199.26v0.069h0.069a2.477,2.477,0,0,0,.206.823c0.023,0.206.045,0.412,0.068,0.618h0.069V1.251h0.068V1.525h0.069V1.8h0.069q0.068,0.446.137,0.892c0.287,0.876.47,1.938,0.754,2.813V5.848h0.069V6.123h0.069V6.4h0.068V6.672h0.069V6.946h0.068V7.221h0.069V7.564c0.649,1.984.935,4.259,1.578,6.244v0.343h0.068v0.274H202.9V14.7h0.069v0.274h0.068v0.274H203.1v0.274h0.068v0.343c0.41,1.254.6,2.731,1.029,3.98l0.138,0.892h0.068v0.274h0.069v0.274h0.068v0.274h0.069v0.274h0.069v0.274h0.068v0.343h0.069c0.023,0.183.045,0.366,0.068,0.549h0.069l-0.069.206h0.069v0.274c0.235,0.694.38,1.569,0.617,2.264l0.138,0.892h0.068v0.274h0.069v0.274h0.068v0.275h0.069v0.274h0.068v0.274h0.069q0.069,0.446.137,0.892c0.429,1.25.623,2.727,1.029,3.98v0.343h0.069V33.5h0.068v0.275h0.069v0.274h0.069v0.275h0.068V34.6H207.7v0.343h0.068v0.274h0.069v0.275H207.9v0.274h0.068v0.275h0.069v0.274h0.068l0.069,0.618h0.069v0.274h0.068v0.275h0.069v0.274h0.068l0.069,0.618h0.069v0.275h0.068v0.274h0.069V39.2H208.8v0.275h0.069l0.069,0.618c0.456,1.334.662,2.911,1.1,4.254q0.069,0.446.137,0.892c0.458,1.336.663,2.913,1.1,4.254v0.343c0.105,0.323.238,0.775,0.343,1.1v0.343c0.437,1.341.641,2.918,1.1,4.254l0.138,0.892c0.409,1.254.6,2.732,1.029,3.98q0.067,0.446.137,0.892c0.256,0.786.418,1.754,0.686,2.539q0.034,0.309.068,0.618h0.069v0.274H214.9V65h0.068v0.275h0.069v0.275h0.068v0.274h0.069l0.069,0.618h0.068v0.274h0.069v0.275h0.068v0.274h0.069v0.275h0.069q0.033,0.309.068,0.618h0.069v0.275h0.068V68.7h0.069v0.274h0.069v0.275H216V69.6c0.467,1.432.7,3.1,1.166,4.529l0.069,0.618c0.236,0.691.381,1.57,0.617,2.264l0.069,0.618c0.285,0.875.457,1.941,0.754,2.813l0.069,0.618c0.256,0.786.419,1.754,0.686,2.539l0.069,0.618h0.068v0.274h0.069V84.76H219.7v0.274h0.068v0.274h0.069v0.275h0.068v0.343c0.647,1.984.935,4.258,1.578,6.244l0.069,0.618c0.4,1.159.563,2.542,0.96,3.705,0.046,0.3.091,0.595,0.137,0.892,0.286,0.875.458,1.941,0.755,2.814,0.023,0.206.045,0.411,0.068,0.617,0.257,0.786.419,1.754,0.686,2.539l0.069,0.618H224.3v0.274h0.068v0.275h0.069V104.8H224.5v0.275h0.069v0.274h0.069q0.033,0.309.068,0.618h0.069v0.274h0.068v0.275h0.069v0.274h0.069v0.275h0.068l0.069,0.617h0.068v0.275h0.069v0.274h0.068V108.5H225.4v0.274h0.069v0.343c0.467,1.433.7,3.1,1.166,4.529q0.035,0.309.068,0.618c0.237,0.691.381,1.57,0.618,2.264q0.034,0.309.068,0.618c0.286,0.875.458,1.941,0.755,2.813l0.069,0.618h0.068v0.274h0.069v0.275h0.068V121.4h0.069v0.274h0.069v0.275h0.068V122.3c0.648,1.987.934,4.258,1.578,6.244l0.069,0.618c0.237,0.694.381,1.573,0.617,2.264l0.069,0.618c0.647,1.984.934,4.258,1.577,6.244L232.6,138.9c0.267,0.781.42,1.757,0.686,2.539q0.035,0.309.068,0.617c0.106,0.323.239,0.775,0.343,1.1V143.5c0.648,1.986.934,4.256,1.578,6.245v0.343h0.069v0.274h0.068v0.275h0.069v0.274h0.069v0.275h0.068v0.274h0.069V151.8c0.466,1.431.7,3.1,1.166,4.529v0.343h0.069v0.275h0.068v0.274h0.069V157.5h0.068v0.274H237.2v0.275h0.069v0.343c0.408,1.252.6,2.729,1.028,3.98l0.138,0.892c0.437,1.341.641,2.917,1.1,4.254,0.046,0.3.092,0.6,0.137,0.892,0.257,0.786.419,1.754,0.686,2.539l0.069,0.618c0.285,0.875.458,1.941,0.755,2.813q0.033,0.309.068,0.617h0.069v0.275h0.068v0.274h0.069v0.275h0.069v0.274h0.068v0.275h0.069v0.343c0.648,1.987.934,4.257,1.578,6.244q0.033,0.309.068,0.618c0.4,1.161.564,2.544,0.96,3.7l0.138,0.892c0.408,1.251.6,2.733,1.029,3.98q0.068,0.447.137,0.892c0.285,0.875.457,1.942,0.754,2.814l0.069,0.617c0.1,0.323.238,0.775,0.343,1.1,0.046,0.3.091,0.595,0.137,0.892h0.069v0.275H247v0.274h0.069v0.275h0.069c0.022,0.206.045,0.411,0.068,0.617h0.069v0.275h0.068v0.274h0.069v0.275h0.069V201h0.068l0.069,0.618c0.456,1.332.663,2.914,1.1,4.254l0.069,0.618c0.4,1.159.563,2.542,0.96,3.7l0.138,0.892h0.068v0.275h0.069v0.274h0.068v0.275h0.069v0.274h0.069v0.275H250.3V212.8c0.647,1.983.935,4.258,1.578,6.244v0.343h0.068v0.275h0.069v0.274h0.069v0.274h0.068v0.275h0.069v0.274h0.068v0.344c0.467,1.429.7,3.1,1.167,4.528v0.343h0.068v0.275h0.069v0.274h0.068V226.8h0.069v0.274H253.8v0.275h0.068v0.343c0.467,1.43.7,3.1,1.166,4.529v0.343H255.1v0.274h0.069v0.275h0.068v0.274h0.069v0.275h0.068v0.274h0.069v0.343c0.408,1.251.6,2.733,1.029,3.98,0.046,0.3.091,0.595,0.137,0.892,0.286,0.875.458,1.942,0.755,2.814,0.023,0.206.045,0.411,0.068,0.617,0.257,0.787.42,1.757,0.686,2.539l0.069,0.618h0.068v0.274h0.069v0.275h0.069v0.274h0.068v0.275h0.069v0.274H258.6v0.343c0.648,1.985.935,4.259,1.578,6.245v0.343h0.069v0.274h0.068v0.275h0.069v0.274h0.069v0.275h0.068v0.274h0.069v0.343c0.105,0.323.238,0.775,0.343,1.1,0.023,0.206.045,0.412,0.068,0.618h0.069v0.274h0.069v0.275H261.2V258.3h0.069v0.275h0.068v0.343c0.467,1.43.7,3.1,1.167,4.529v0.343c0.2,0.61.338,1.374,0.548,1.99l0.069,0.549c0.239,0.7.391,1.567,0.617,2.264v0.343c0.106,0.323.239,0.775,0.343,1.1,0.046,0.3.092,0.6,0.137,0.892h0.069V271.2h0.069v0.275h0.068v0.274H264.5q0.034,0.309.068,0.618h0.069v0.275H264.7v0.274h0.068v0.274h0.069v0.275h0.068l0.069,0.617c0.455,1.334.664,2.915,1.1,4.255v0.343h0.068v0.274h0.069v0.275h0.068V279.5h0.069v0.275h0.069v0.274h0.068q0.1,0.584.206,1.167c0.243,0.721.4,1.6,0.617,2.333v4.46h-0.068v0.206h-0.069v0.137H267.1l-0.069.412h-0.069v0.206H266.9v0.206h-0.069v0.206h-0.068v0.137h-0.069v0.206h-0.069v0.206h-0.068v0.2h-0.069v0.206h-0.068v0.206h-0.069v0.137H266.28q-0.067.309-.137,0.618h-0.068l-0.138.617h-0.068v0.138H265.8v0.206h-0.068v0.205h-0.069v0.206h-0.069v0.206h-0.068v0.206h-0.069v0.137h-0.068l-0.069.412h-0.069q-0.067.309-.137,0.618h-0.068v0.137h-0.069V294.6h-0.069v0.2H264.84v0.206h-0.069v0.206H264.7v0.206h-0.069v0.137h-0.069v0.206H264.5v0.206h-0.069v0.206H264.36v0.206h-0.069v0.206c-0.667,1.524-1.117,3.278-1.783,4.8l-0.138.618H262.3l-0.069.411h-0.068v0.206H262.1v0.137h-0.069q-0.067.309-.137,0.618h-0.068l-0.069.412h-0.069v0.137h-0.068l-0.069.412h-0.068l-0.138.617h-0.068V305.1H261.2V305.3h-0.068v0.206h-0.069v0.206H261v0.206H260.93v0.206c-0.668,1.524-1.118,3.278-1.784,4.8v0.206h-0.068v0.206h-0.069v0.206H258.94v0.2h-0.068v0.206H258.8V312.1h-0.068V312.3h-0.069v0.206H258.6v0.206h-0.068v0.206H258.46v0.206h-0.068v0.206h-0.069v0.137h-0.069q-0.067.309-.137,0.617c-0.119.3-.292,0.662-0.411,0.961l-0.138.618H257.5V315.8h-0.069c-0.023.137-.045,0.274-0.068,0.412h-0.069c-0.046.2-.091,0.411-0.137,0.617h-0.069v0.137H257.02v0.206h-0.069v0.206h-0.069v0.206h-0.068v0.206h-0.069V318h-0.068v0.137h-0.069c-0.023.137-.046,0.274-0.068,0.412h-0.069q-0.069.307-.137,0.617h-0.069V319.3H256.2v0.206h-0.069v0.206h-0.069v0.206h-0.068v0.206h-0.069v0.206c-0.7,1.59-1.156,3.416-1.852,5.009v0.206H254v0.206h-0.068v0.206h-0.069v0.2H253.8v0.206h-0.069v0.137h-0.069v0.206H253.59v0.206h-0.069v0.206h-0.068v0.206h-0.069v0.206h-0.069v0.137h-0.068v0.206h-0.069v0.206H253.11v0.206h-0.069v0.2h-0.069V328.7c-0.5,1.149-.87,2.489-1.372,3.637v0.206h-0.068v0.206h-0.069v0.206H251.4v0.206h-0.069v0.205c-0.531,1.213-.911,2.63-1.44,3.843v0.206h-0.069v0.206h-0.069v0.206H249.68v0.206h-0.069v0.2h-0.068v0.138h-0.069l-0.069.411h-0.068q-0.069.309-.137,0.618h-0.069v0.137h-0.069v0.206h-0.068v0.206h-0.069v0.206h-0.068v0.206h-0.069v0.2h-0.069v0.138h-0.068v0.206h-0.069v0.2h-0.068v0.206h-0.069v0.206h-0.069v0.206h-0.068v0.137h-0.069c-0.023.137-.046,0.275-0.068,0.412H248.1c-0.046.206-.091,0.412-0.137,0.617H247.9v0.138h-0.068v0.206h-0.069v0.2H247.69v0.206h-0.068v0.206h-0.069v0.206h-0.068v0.137h-0.069c-0.046.206-.091,0.412-0.137,0.618-0.12.3-.292,0.661-0.412,0.96v0.206H246.8V346.2H246.73v0.206h-0.069v0.206c-0.667,1.525-1.117,3.278-1.783,4.8v0.206h-0.069v0.206h-0.068v0.206h-0.069v0.206H244.6v0.206h-0.068v0.137h-0.069v0.206H244.4v0.205h-0.069V353.2H244.26V353.4h-0.068v0.206c-0.7,1.59-1.157,3.418-1.852,5.009v0.206h-0.069v0.206H242.2v0.206h-0.069v0.206h-0.069v0.206H242v0.137h-0.069v0.206H241.86v0.2h-0.069V360.4h-0.069v0.206h-0.068v0.206c-0.668,1.525-1.118,3.278-1.784,4.8v0.206H239.8v0.206h-0.069v0.206h-0.069v0.206H239.6v0.206h-0.069v0.137h-0.068q-0.173.618-.343,1.235c-0.668,1.525-1.118,3.278-1.784,4.8v0.206h-0.068v0.206H237.2v0.206h-0.069v0.206h-0.068v0.206c-0.5,1.148-.871,2.488-1.372,3.636q-0.173.618-.343,1.236h-0.069v0.137h-0.068l-0.069.412h-0.069q-0.068.308-.137,0.617h-0.068v0.137h-0.069v0.206h-0.069v0.206h-0.068v0.206h-0.069v0.206H234.52v0.206h-0.069V381.2h-0.069V381.4h-0.068v0.206h-0.069v0.2h-0.068v0.206h-0.069v0.206h-0.069v0.137h-0.068l-0.069.412h-0.068l-0.138.618h-0.068v0.137h-0.069v0.206h-0.068v0.206h-0.069v0.206h-0.069v0.2h-0.068v0.206h-0.069v0.137h-0.068l-0.069.412H233.01q-0.067.309-.137,0.618h-0.068v0.137h-0.069v0.206h-0.069v0.206H232.6v0.206H232.53v0.205h-0.068v0.206c-0.7,1.59-1.158,3.42-1.852,5.01v0.205h-0.069v0.206h-0.069v0.206H230.4v0.206h-0.069v0.206h-0.068v0.137H230.2q-0.069.309-.137,0.618h-0.069c-0.023.137-.046,0.274-0.068,0.411h-0.069v0.138h-0.069v0.2h-0.068l-0.069.412h-0.068l-0.069.412h-0.069V395.4h-0.068l-0.069.412h-0.068l-0.138.617h-0.068v0.138h-0.069v0.205H228.9v0.206h-0.069v0.206h-0.069v0.206h-0.068V397.6c-0.7,1.59-1.157,3.418-1.852,5.009v0.206h-0.069v0.206H226.7v0.206h-0.068v0.206h-0.069v0.2h-0.068v0.138h-0.069v0.2h-0.069v0.206h-0.068v0.206h-0.069v0.206h-0.068V404.8h-0.069v0.137h-0.069q-0.068.309-.137,0.618h-0.068l-0.069.411h-0.068V406.1H225.6v0.205h-0.069c-0.023.138-.045,0.275-0.068,0.412H225.4l-0.069.412h-0.068v0.137H225.19c-0.023.137-.045,0.275-0.068,0.412h-0.069c-0.046.206-.091,0.412-0.137,0.617h-0.069v0.138h-0.068v0.206H224.71v0.205h-0.068v0.206h-0.069v0.206H224.5v0.206c-0.695,1.59-1.158,3.419-1.852,5.009v0.206h-0.068v0.206h-0.069v0.206h-0.069V415.3h-0.068V415.5h-0.069v0.138h-0.068l-0.138.617h-0.068l-0.069.412H221.9v0.137h-0.069v0.206H221.76c-0.022.137-.045,0.275-0.068,0.412h-0.069c-0.023.137-.046,0.274-0.068,0.411-0.7,1.591-1.157,3.417-1.852,5.01v0.206h-0.069v0.2h-0.069v0.206H219.5v0.206h-0.069v0.206h-0.069v0.137h-0.068q-0.069.309-.137,0.618h-0.069l-0.069.412h-0.068v0.137h-0.069v0.206h-0.068l-0.069.411h-0.069c-0.022.138-.045,0.275-0.068,0.412-0.667,1.525-1.117,3.278-1.784,4.8v0.206h-0.068v0.206h-0.069v0.206h-0.068v0.206h-0.069v0.206h-0.069v0.137H216.41q-0.173.618-.343,1.235c-0.668,1.525-1.118,3.278-1.784,4.8v0.206h-0.068v0.206h-0.069v0.206h-0.069v0.206h-0.068v0.206c-0.5,1.148-.87,2.488-1.372,3.637q-0.171.616-.343,1.235h-0.069v0.137h-0.068l-0.069.412H212.02l-0.138.617h-0.068v0.137h-0.069v0.206h-0.068v0.206h-0.069v0.206h-0.069v0.206h-0.068v0.206H211.4v0.137h-0.068V446.8h-0.069V447H211.2v0.205h-0.068v0.206h-0.069v0.206h-0.068v0.137h-0.069l-0.069.412h-0.068q-0.069.309-.137,0.618h-0.069v0.137H210.51v0.206h-0.068v0.206h-0.069v0.206h-0.068v0.2h-0.069v0.206h-0.069v0.137H210.1l-0.069.412h-0.068l-0.138.618h-0.068v0.137h-0.069v0.206h-0.068v0.206H209.55v0.206h-0.069v0.2h-0.068v0.206c-0.7,1.59-1.158,3.42-1.852,5.009V457.5h-0.069v0.206h-0.069v0.206h-0.068v0.206h-0.069v0.206h-0.068v0.137h-0.069v0.206H207.08v0.206h-0.068v0.206h-0.069v0.205h-0.068v0.206h-0.069v0.138h-0.069q-0.067.307-.137,0.617c-0.119.3-.292,0.662-0.411,0.961l-0.138.617h-0.068v0.138h-0.069v0.205h-0.068v0.206h-0.069v0.206h-0.068v0.206H205.64v0.206h-0.069v0.137H205.5q-0.069.309-.137,0.618H205.3l-0.069.411H205.16v0.138h-0.069V464.5h-0.068v0.2h-0.069v0.206h-0.069v0.206h-0.068v0.206h-0.069v0.206H204.68v0.137h-0.069l-0.069.412h-0.068c-0.046.206-.092,0.411-0.137,0.617h-0.069v0.138H204.2v0.2h-0.068v0.206h-0.069v0.206h-0.068v0.206h-0.069v0.206h-0.069V468h-0.068l-0.069.412h-0.068l-0.138.617h-0.068v0.138h-0.069v0.2h-0.068v0.206h-0.069v0.206H203.17v0.206H203.1v0.206c-0.668,1.525-1.118,3.278-1.784,4.8V475.2H201.25v0.206h-0.069v0.206h-0.069v0.206h-0.068v0.206h-0.069v0.137h-0.068v0.206h-0.069v0.2h-0.069v0.206H200.7v0.206h-0.069v0.206h-0.068V477.4H200.5v0.137h-0.068l-0.138.618h-0.068l-0.069.411h-0.069V478.7h-0.068v0.206h-0.069v0.2h-0.068v0.206h-0.069v0.206H199.74v0.206h-0.068v0.137H199.6v0.206h-0.068v0.206h-0.069v0.206H199.4v0.206h-0.069V480.9H199.26v0.138h-0.068l-0.069.411h-0.068l-0.138.618h-0.068V482.2H198.78v0.206h-0.068v0.206h-0.069v0.206h-0.069v0.206h-0.068v0.206h-0.069v0.137h-0.068v0.206H198.3v0.2h-0.069v0.206h-0.068v0.206h-0.069V484.4h-0.068v0.137h-0.069l-0.069.412H197.82q-0.069.309-.137,0.618h-0.069V485.7h-0.069v0.206h-0.068v0.206h-0.069v0.205H197.34v0.206h-0.069v0.206H197.2v0.137h-0.068q-0.069.309-.137,0.618h-0.069c-0.046.206-.091,0.412-0.137,0.618h-0.069v0.137h-0.068v0.206h-0.069v0.2h-0.069v0.206h-0.068v0.206h-0.069v0.206c-0.667,1.525-1.117,3.278-1.783,4.8v0.206h-0.069v0.206h-0.069v0.206H194.39V494.9h-0.069V495.1h-0.068v0.137h-0.069v0.206h-0.069v0.206h-0.068v0.205h-0.069v0.206H193.91v0.206h-0.069v0.137h-0.069q-0.067.309-.137,0.618h-0.068l-0.069.412h-0.069v0.137h-0.068v0.206h-0.069c-0.023.137-.045,0.274-0.068,0.411h-0.069c-0.046.206-.091,0.412-0.137,0.618h-0.069v0.137h-0.068l-0.069.412h-0.068l-0.138.618h-0.068v0.137h-0.069v0.206H192.4v0.206h-0.069v0.2h-0.069v0.206H192.2v0.206c-0.668,1.525-1.118,3.278-1.784,4.8v0.206h-0.068v0.206h-0.069v0.206h-0.069v0.206h-0.068v0.206h-0.069v0.137H190v0.206h-0.069v0.206h-0.069v0.206h-0.068v0.205h-0.069v0.206h-0.068v0.137h-0.069c-0.046.206-.091,0.412-0.137,0.618h-0.069c-0.046.206-.091,0.412-0.137,0.618h-0.069v0.137h-0.068v0.206h-0.069v0.206h-0.068v0.2H188.9v0.206h-0.069v0.206h-0.068v0.137H188.7q-0.067.309-.137,0.618c-0.12.3-.292,0.662-0.412,0.961q-0.067.308-.137,0.617c-0.667,1.525-1.117,3.278-1.783,4.8v0.2h-0.069v0.206H186.09v0.206h-0.069v0.206h-0.069v0.206h-0.068v0.137h-0.069v0.206h-0.068v0.206h-0.069V519.6h-0.069v0.206c-0.119.3-.292,0.661-0.411,0.96q-0.069.309-.137,0.618h-0.069v0.137h-0.069q-0.068.309-.137,0.618h-0.068l-0.069.411H184.58v0.138h-0.068v0.205h-0.069c-0.023.138-.046,0.275-0.068,0.412h-0.069l-0.069.412c-0.667,1.525-1.117,3.278-1.783,4.8v0.206h-0.069v0.206h-0.068v0.206h-0.069v0.206h-0.069v0.2h-0.068v0.138h-0.069c-0.045.206-.091,0.411-0.137,0.617h-0.069c-0.022.137-.045,0.275-0.068,0.412H181.7v0.206h-0.068v0.137h-0.069c-0.046.206-.091,0.412-0.137,0.618h-0.069c-0.023.137-.045,0.274-0.068,0.411-0.668,1.525-1.118,3.278-1.784,4.8v0.2h-0.068V537.3h-0.069v0.206H179.3v0.206H179.23v0.206h-0.069v0.137h-0.068v0.206h-0.069v0.206h-0.069v0.206h-0.068v0.206h-0.069v0.205c-0.531,1.213-.911,2.63-1.44,3.843v0.206h-0.069v0.206H177.24v0.206h-0.068v0.206H177.1v0.2c-0.5,1.149-.87,2.489-1.372,3.637V547.8h-0.068v0.206h-0.069v0.206h-0.069v0.206h-0.068v0.205h-0.069v0.138H175.32l-0.069.411h-0.069q-0.067.309-.137,0.618h-0.068v0.137h-0.069v0.206h-0.069v0.206h-0.068v0.206H174.7v0.206h-0.068v0.206h-0.069V551.1H174.5V551.3h-0.068v0.206h-0.069v0.2h-0.068v0.206h-0.069v0.206h-0.069v0.137h-0.068q-0.069.309-.137,0.618h-0.069c-0.046.206-.091,0.412-0.137,0.617h-0.069v0.138h-0.068v0.206h-0.069v0.205h-0.068v0.206H173.4v0.206H173.33v0.206h-0.068V554.8h-0.069c-0.023.137-.046,0.275-0.068,0.412h-0.069q-0.069.309-.137,0.618H172.85v0.137h-0.068v0.206h-0.069v0.205h-0.069v0.206h-0.068v0.206h-0.069V557c-0.667,1.525-1.117,3.278-1.783,4.8v0.206h-0.069v0.206h-0.069v0.206h-0.068v0.206h-0.069v0.206h-0.068v0.137h-0.069q-0.171.618-.343,1.235c-0.667,1.525-1.117,3.278-1.784,4.8v0.206h-0.068v0.206h-0.069v0.206H167.98v0.206h-0.069v0.206c-0.7,1.59-1.156,3.416-1.852,5.009v0.206H165.99v0.206h-0.068v0.2h-0.069v0.206h-0.068v0.206c-0.5,1.148-.871,2.488-1.372,3.637v0.206h-0.069v0.206h-0.069v0.206h-0.068v0.205h-0.069v0.206H164.07v0.137H164l-0.069.412h-0.068q-0.069.309-.137,0.618h-0.069v0.137h-0.069v0.206h-0.068v0.206h-0.069v0.206h-0.068v0.205h-0.069v0.206h-0.069v0.138h-0.068v0.2h-0.069v0.206h-0.068v0.206h-0.069v0.206H162.9v0.206h-0.068v0.137h-0.069q-0.067.309-.137,0.618H162.56q-0.068.307-.137,0.617h-0.068v0.137h-0.069v0.206h-0.069v0.206h-0.068v0.206H162.08v0.206h-0.068v0.206h-0.069v0.137h-0.068l-0.069.412h-0.069c-0.045.206-.091,0.411-0.137,0.617h-0.069v0.137h-0.068v0.206h-0.069v0.206h-0.068V588.7h-0.069v0.206h-0.069v0.206c-0.667,1.525-1.117,3.278-1.783,4.8v0.206h-0.069v0.206h-0.068v0.206H159.2v0.206h-0.068v0.2h-0.069v0.138h-0.069q-0.171.616-.343,1.235c-0.667,1.525-1.117,3.278-1.783,4.8v0.206H156.8v0.206H156.73v0.206h-0.069v0.206h-0.069v0.205h-0.068v0.138h-0.069q-0.068.308-.137,0.617h-0.069c-0.022.137-.045,0.275-0.068,0.412h-0.069v0.137h-0.068v0.206h-0.069l-0.069.412h-0.068l-0.069.411c-0.695,1.59-1.158,3.42-1.852,5.01V609.7h-0.068V609.9H153.78v0.206h-0.069v0.206h-0.068v0.206h-0.069v0.137h-0.068l-0.069.412h-0.069q-0.067.309-.137,0.617h-0.068v0.138h-0.069v0.206h-0.069v0.205h-0.068v0.206h-0.069v0.206H152.82v0.206h-0.069v0.137h-0.069V613.2h-0.068V613.4h-0.069v0.206h-0.068v0.206h-0.069v0.206h-0.069v0.137h-0.068l-0.069.411h-0.068l-0.138.618h-0.068v0.137h-0.069v0.206h-0.068v0.206h-0.069v0.206h-0.069v0.206h-0.068v0.206h-0.069v0.137h-0.068l-0.138.617h-0.068q-0.069.309-.137,0.618h-0.069v0.137h-0.069v0.206H150.9v0.206H150.83v0.206h-0.068v0.206h-0.069v0.2c-0.667,1.525-1.117,3.278-1.784,4.8V623.9h-0.068v0.206h-0.069v0.205H148.7v0.206h-0.069v0.206h-0.068v0.137H148.5v0.206h-0.069v0.206h-0.068v0.206h-0.069v0.206h-0.068v0.206c-0.532,1.214-.91,2.626-1.441,3.842v0.206h-0.069v0.206h-0.068v0.206h-0.069v0.206h-0.068v0.206c-0.668,1.524-1.118,3.278-1.784,4.8v0.206h-0.069v0.206h-0.068v0.205h-0.069v0.206h-0.068V636.6c-0.532,1.215-.91,2.626-1.441,3.843v0.206h-0.069v0.206h-0.068v0.2H142.8v0.206h-0.068v0.206h-0.069V641.6H142.6l-0.069.412h-0.069q-0.068.309-.137,0.618h-0.069v0.137h-0.068v0.206h-0.069v0.206H142.05v0.205h-0.069v0.206h-0.068V643.8h-0.069v0.137h-0.069v0.206h-0.068v0.206h-0.069v0.206H141.57v0.206H141.5v0.206h-0.069V645.1h-0.068l-0.069.412h-0.068l-0.138.617h-0.068v0.137h-0.069v0.206h-0.068v0.206h-0.069v0.206h-0.069v0.206h-0.068V647.3h-0.069v0.137h-0.068l-0.069.412H140.4c-0.045.206-.091,0.411-0.137,0.617H140.2V648.6h-0.069v0.2H140.06v0.206h-0.068v0.206h-0.069v0.206h-0.068v0.206c-0.7,1.592-1.158,3.418-1.853,5.009v0.206h-0.068v0.206h-0.069v0.206H137.8v0.205h-0.069v0.206h-0.069v0.138h-0.068v0.205h-0.069v0.206h-0.068v0.206h-0.069v0.206h-0.069v0.206c-0.5,1.148-.87,2.488-1.372,3.637q-0.171.616-.343,1.235h-0.068v0.137h-0.069c-0.023.137-.045,0.275-0.068,0.412h-0.069c-0.046.206-.091,0.411-0.137,0.617h-0.069v0.138h-0.068v0.205h-0.069v0.206h-0.068v0.206h-0.069v0.206h-0.069v0.206H134.71v0.137h-0.069v0.206h-0.068v0.206H134.5V664.8h-0.069V665h-0.068v0.2H134.3v0.138H134.23l-0.069.411h-0.069q-0.068.309-.137,0.618h-0.068v0.137h-0.069v0.206h-0.069v0.206h-0.068v0.206h-0.069v0.206h-0.068v0.205h-0.069v0.138h-0.069c-0.023.137-.045,0.274-0.068,0.411h-0.069c-0.046.206-.091,0.412-0.137,0.618h-0.069v0.137H133v0.206h-0.069v0.206h-0.068v0.206h-0.069v0.206H132.72v0.205c-0.695,1.59-1.157,3.42-1.852,5.01v0.206H130.8V675.3h-0.069V675.5h-0.069v0.206h-0.068v0.206h-0.069v0.137h-0.068v0.206h-0.069v0.206h-0.069v0.206h-0.068v0.206h-0.069v0.205h-0.068v0.138h-0.069l-0.069.411h-0.068q-0.069.309-.137,0.618H129.7v0.137h-0.069v0.206h-0.068V678.8H129.5V679h-0.068v0.206h-0.069v0.206h-0.068v0.137h-0.069v0.206h-0.069v0.206h-0.068v0.205h-0.069v0.206h-0.068v0.206h-0.069v0.137H128.81q-0.068.309-.137,0.618c-0.119.3-.292,0.662-0.411,0.961v0.2h-0.069v0.206h-0.069v0.206h-0.068v0.206h-0.069v0.137h-0.068l-0.069.412h-0.069q-0.067.309-.137,0.617h-0.068v0.138h-0.069v0.206h-0.069v0.2H127.37v0.206H127.3v0.206h-0.068v0.206c-0.668,1.525-1.118,3.278-1.784,4.8v0.206H125.38v0.206h-0.068v0.206h-0.069v0.206h-0.068v0.206h-0.069v0.137h-0.069v0.206h-0.068v0.206H124.9v0.205h-0.068v0.206h-0.069v0.206h-0.069v0.137h-0.068q-0.069.309-.137,0.618H124.42l-0.069.412h-0.068v0.206h-0.069v0.137h-0.068l-0.069.411h-0.069q-0.068.309-.137,0.618H123.8v0.137h-0.069l-0.069.412H123.6q-0.069.309-.137,0.618h-0.069v0.137h-0.068V696.5h-0.069v0.206h-0.069v0.2h-0.068v0.206h-0.069v0.206h-0.069v0.137h-0.068v0.206h-0.069v0.206h-0.068v0.206h-0.069v0.206h-0.068v0.206h-0.069v0.137H122.5c-0.023.137-.045,0.274-0.068,0.412h-0.069c-0.046.205-.091,0.411-0.137,0.617h-0.069v0.137h-0.068V700h-0.069v0.206h-0.068v0.206h-0.069v0.206h-0.069v0.206h-0.068v0.137h-0.069c-0.023.137-.046,0.274-0.068,0.412h-0.069q-0.069.308-.137,0.617h-0.069v0.137h-0.068v0.206H121.2v0.206h-0.069v0.206h-0.068v0.206H120.99v0.206c-0.7,1.589-1.158,3.419-1.852,5.009v0.206h-0.069v0.206H119v0.206h-0.069v0.205h-0.068v0.206H118.8v0.137h-0.069c-0.022.138-.045,0.275-0.068,0.412h-0.069v0.206h-0.068v0.206h-0.069v0.206h-0.069V710.5h-0.068v0.069h0.068c-0.022.137-.045,0.274-0.068,0.411h-0.069v0.206h-0.068v0.137h-0.069l-0.069.412h-0.068q-0.069.309-.137,0.618h-0.069v0.137H117.7v0.206h-0.068V712.9H117.56v0.206h-0.068v0.205h-0.069v0.206h-0.068v0.137h-0.069v0.206h-0.069v0.206h-0.068v0.206H117.08v0.206h-0.069v0.206h-0.068v0.137h-0.069v0.206h-0.068v0.206h-0.069v0.206h-0.069v0.205H116.6v0.206h-0.069v0.138h-0.068l-0.138.617h-0.068l-0.069.412H116.12v0.137h-0.069v0.206h-0.068v0.206h-0.069v0.206h-0.069v0.2h-0.068v0.206h-0.069v0.138H115.64l-0.138.617h-0.068l-0.069.412H115.3v0.137h-0.069q-0.171.618-.343,1.235c-0.5,1.148-.87,2.488-1.372,3.637v0.206h-0.069v0.206h-0.068v0.206h-0.069v0.205h-0.068v0.206c-0.5,1.149-.871,2.489-1.372,3.637v0.206H111.8v0.206h-0.069v0.206h-0.068v0.206h-0.069v0.2c-0.7,1.592-1.157,3.419-1.852,5.01v0.205h-0.068v0.206H109.6v0.206h-0.069v0.206h-0.068v0.206H109.4v0.137h-0.068l-0.138.618h-0.068l-0.069.411h-0.068V737.4h-0.069V737.6h-0.069v0.205H108.78v0.206h-0.069c-0.023.137-.046,0.275-0.068,0.412h-0.069v0.137h-0.069v0.206h-0.068v0.206h-0.069v0.206H108.3v0.206h-0.069v0.205h-0.069v0.138h-0.068v0.206h-0.069v0.2h-0.068v0.206h-0.069v0.206h-0.069v0.206c-0.492,1.13-.821,2.41-1.3,3.568-1.981.18-4.282,0.069-6.38,0.069H54.107ZM211.334-.533H383.446A3.138,3.138,0,0,0,383.72.5l0.069,0.549h0.068V1.32h0.069V1.594h0.068V1.869h0.069V2.143h0.069V2.349H384.2q0.138,0.686.275,1.372c0.52,1.432.8,3.137,1.3,4.6,0.046,0.274.091,0.549,0.137,0.823,0.28,0.813.476,1.791,0.755,2.608q0.067,0.412.137,0.823h0.068v0.206h0.069v0.274h0.069v0.274h0.068V13.6h0.069v0.274h0.068l0.069,0.48h0.069v0.274h0.068q0.069,0.412.137,0.823c0.259,0.717.439,1.606,0.686,2.333l0.138,0.823h0.068v0.206h0.069v0.274h0.068v0.274h0.069v0.274h0.069q0.033,0.274.068,0.549h0.069V20.4h0.068V20.67H389v0.274h0.069v0.274h0.068l0.069,0.549c0.529,1.468.778,3.2,1.3,4.666q0.138,0.686.275,1.372h0.068v0.206h0.069v0.274h0.068v0.274h0.069v0.274h0.069q0.033,0.274.068,0.549h0.069v0.206h0.068v0.275H391.4V30.14h0.068v0.274h0.069l0.069,0.549c0.56,1.556.815,3.383,1.372,4.941q0.033,0.275.068,0.549c0.167,0.488.313,1.087,0.48,1.578L393.6,38.58h0.069v0.206h0.068V39.06H393.8v0.275h0.068v0.274h0.069l0.069,0.549c0.592,1.643.875,3.558,1.44,5.215l0.069,0.549c0.137,0.4.275,0.9,0.411,1.3L396,47.775h0.069v0.206h0.068v0.274h0.069V48.53h0.068V48.8h0.069l0.069,0.549c0.56,1.556.814,3.383,1.371,4.941q0.138,0.686.275,1.372c0.529,1.469.777,3.2,1.3,4.666q0.138,0.686.275,1.372c0.409,1.136.638,2.491,1.029,3.637v0.275h0.068V65.89H400.8v0.274h0.068v0.275h0.069v0.206h0.069v0.274h0.068v0.275h0.069v0.275h0.068v0.274h0.069l0.069,0.48h0.068V68.5h0.069q0.067,0.412.137,0.823c0.258,0.717.439,1.606,0.686,2.333,0.046,0.274.091,0.549,0.137,0.823h0.069v0.206h0.068v0.274h0.069v0.275h0.069v0.275h0.068l0.069,0.549h0.068v0.206H403v0.274h0.069v0.274h0.068v0.275H403.2c0.023,0.183.045,0.366,0.068,0.549,0.529,1.468.779,3.2,1.3,4.666v0.274h0.068v0.275h0.069v0.274h0.069V81.4c0.279,0.813.476,1.791,0.754,2.608q0.069,0.412.137,0.823c0.259,0.717.439,1.606,0.686,2.333q0.069,0.412.137,0.823c0.227,0.63.4,1.418,0.618,2.059,0.046,0.274.091,0.549,0.137,0.823h0.069v0.206h0.068v0.275h0.069v0.274h0.068V91.9h0.069v0.275h0.069c0.022,0.16.045,0.32,0.068,0.48H407.8v0.274h0.068L408,93.75h0.068v0.275h0.069V94.23h0.068V94.5h0.069v0.275h0.069v0.274h0.068v0.274c0.539,1.568.816,3.384,1.372,4.94v0.275h0.069v0.274h0.068v0.275h0.069v0.274c0.279,0.813.477,1.791,0.754,2.608l0.138,0.823c0.258,0.717.438,1.607,0.686,2.333,0.045,0.275.091,0.549,0.137,0.824h0.068v0.206h0.069v0.274h0.069v0.274h0.068v0.275h0.069v0.274h0.068l0.069,0.481h0.069v0.274h0.068c0.046,0.275.092,0.549,0.137,0.824h0.069v0.206H412.6v0.274h0.068v0.274h0.069v0.275h0.068v0.274h0.069l0.069,0.481h0.068v0.274h0.069c0.046,0.275.091,0.549,0.137,0.824,0.569,1.656.852,3.569,1.441,5.215q0.033,0.274.068,0.549H414.8v0.274h0.068v0.275h0.069v0.274H415v0.206h0.068c0.046,0.274.092,0.549,0.137,0.823,0.28,0.814.477,1.791,0.755,2.608,0.046,0.274.091,0.549,0.137,0.823,0.258,0.717.439,1.607,0.686,2.333,0.046,0.275.092,0.549,0.137,0.824h0.069v0.206h0.068V128.4h0.069v0.275H417.2v0.274h0.068v0.275h0.069c0.023,0.16.046,0.32,0.068,0.48h0.069v0.274h0.069c0.045,0.275.091,0.549,0.137,0.824,0.538,1.567.815,3.382,1.372,4.94q0.035,0.274.068,0.549h0.069v0.275h0.069v0.274h0.068v0.275h0.069v0.206h0.068l0.069,0.549c0.2,0.579.351,1.272,0.549,1.852q0.035,0.275.068,0.549h0.069v0.206h0.069v0.275h0.068v0.274h0.069V141.3h0.068v0.274h0.069l0.069,0.48h0.068v0.275h0.069c0.045,0.274.091,0.549,0.137,0.823h0.069v0.206h0.068v0.275h0.069v0.274h0.068v0.275h0.069l0.069,0.548c0.56,1.556.815,3.384,1.371,4.941l0.069,0.549c0.2,0.579.351,1.273,0.549,1.853q0.035,0.274.068,0.549c0.529,1.466.778,3.2,1.3,4.666q0.171,0.789.343,1.578h0.068l0.069,0.549h0.069v0.274h0.068v0.275h0.069v0.274h0.068v0.206H425.5q0.137,0.687.274,1.373h0.069v0.206h0.069V162.3h0.068v0.274h0.069v0.275h0.068l0.069,0.549c0.528,1.467.778,3.2,1.3,4.666q0.138,0.685.275,1.372c0.529,1.469.778,3.2,1.3,4.666q0.138,0.687.275,1.373c0.409,1.136.637,2.49,1.028,3.637v0.274h0.069v0.275H430.5v0.274h0.068v0.275c0.259,0.717.439,1.606,0.686,2.333,0.046,0.274.092,0.549,0.137,0.823,0.227,0.63.4,1.419,0.618,2.059,0.046,0.274.091,0.549,0.137,0.823h0.069v0.206h0.068v0.274h0.069V187h0.068v0.274h0.069l0.069,0.549h0.068v0.206H432.7v0.275h0.068v0.274h0.069v0.275h0.069q0.033,0.274.068,0.549c0.561,1.555.815,3.383,1.372,4.94v0.275h0.069v0.274h0.068v0.275h0.069v0.274c0.378,1.048.585,2.313,0.96,3.362q0.138,0.687.275,1.373c0.409,1.136.638,2.49,1.029,3.637v0.274h0.068v0.274h0.069v0.275h0.068v0.274c0.378,1.048.6,2.3,0.961,3.363v0.274h0.068v0.275h0.069V209.1h0.069v0.275c0.258,0.717.438,1.606,0.686,2.333,0.045,0.274.091,0.549,0.137,0.823h0.068v0.206h0.069v0.275h0.069v0.274h0.068v0.274h0.069v0.275h0.068l0.069,0.48h0.069v0.275h0.068c0.046,0.274.092,0.549,0.137,0.823,0.538,1.567.816,3.383,1.372,4.941l0.069,0.549h0.069v0.274h0.068v0.275h0.069v0.274h0.068v0.206h0.069q0.137,0.685.274,1.372h0.069v0.206h0.068v0.275h0.069v0.274H442.1v0.275h0.068l0.069,0.549c0.528,1.47.779,3.194,1.3,4.666v0.274c0.142,0.414.244,0.969,0.412,1.373h0.068l0.138-.687h0.068v-0.274h0.069v-0.206h0.068l0.069-.48H444.5c0.022-.16.045-0.321,0.068-0.481h0.069c0.023-.16.046-0.32,0.068-0.48h0.069v-0.274h0.069v-0.206h0.068V227.9h0.069v-0.275c0.353-.971.61-2.115,0.96-3.088v-0.274h0.069v-0.206h0.068v-0.274h0.069v-0.206h0.069c0.022-.16.045-0.32,0.068-0.48h0.069q0.067-.344.137-0.687h0.069c0.022-.16.045-0.32,0.068-0.48h0.069v-0.274c0.239-.661.448-1.467,0.686-2.128v-0.274h0.068v-0.206h0.069v-0.275c0.852-2.349,1.347-4.992,2.195-7.342v-0.274h0.069v-0.206h0.068l0.069-.48h0.068l0.069-.481h0.069v-0.274c0.6-1.67.977-3.546,1.577-5.215v-0.275h0.069V204.02h0.069c0.022-.16.045-0.32,0.068-0.48h0.069c0.023-.16.046-0.32,0.068-0.48h0.069v-0.275c0.6-1.665.977-3.545,1.578-5.215V197.3h0.068V197.09h0.069l0.069-.48h0.068l0.069-.481H454.1v-0.274c0.489-1.344.817-2.9,1.3-4.255q0.137-.617.274-1.235c0.375-1.031.655-2.254,1.029-3.294q0.136-.617.274-1.235c0.265-.731.492-1.6,0.755-2.333v-0.274h0.069v-0.206h0.068v-0.275h0.069v-0.2h0.068l0.069-.481h0.069c0.022-.16.045-0.32,0.068-0.48h0.069c0.023-.16.046-0.32,0.068-0.48h0.069v-0.275h0.069v-0.206h0.068v-0.274c0.851-2.349,1.35-4.992,2.195-7.342V172.73h0.069v-0.206h0.069V172.25c0.3-.816.529-1.792,0.823-2.608v-0.274h0.068v-0.206h0.069v-0.275c0.264-.728.491-1.6,0.755-2.333V166.28h0.068v-0.206h0.069V165.8h0.068v-0.206h0.069c0.023-.16.046-0.321,0.068-0.481h0.069l0.069-.48h0.068l0.069-.48h0.068v-0.275h0.069v-0.206h0.069V163.4c0.737-2.037,1.185-4.344,1.92-6.382v-0.274h0.069v-0.206h0.069v-0.274c0.3-.816.529-1.792,0.823-2.608q0.137-.618.274-1.235c0.376-1.036.654-2.251,1.029-3.294v-0.274h0.069v-0.206h0.068V148.37c0.321-.886.575-1.931,0.892-2.813v-0.275h0.069v-0.205h0.068V144.8c0.239-.66.449-1.466,0.686-2.127V142.4h0.069V142.2H469.6V141.92c0.908-2.5,1.431-5.315,2.333-7.822v-0.275h0.068v-0.206h0.069v-0.274c0.3-.816.53-1.792,0.823-2.608v-0.274h0.069v-0.206h0.068V129.98H473.1v-0.206h0.068v-0.205h0.069l0.069-.481h0.068l0.069-.48h0.069c0.022-.16.045-0.32,0.068-0.48h0.069c0.023-.16.045-0.321,0.068-0.481h0.069v-0.274h0.069v-0.206h0.068v-0.274H474v-0.206h0.068l0.069-.481H474.2c0.022-.16.045-0.32,0.068-0.48h0.069c0.023-.16.045-0.32,0.068-0.48h0.069v-0.275h0.068v-0.206h0.069v-0.274c0.8-2.191,1.269-4.667,2.058-6.862v-0.275h0.069v-0.2h0.068v-0.275c0.239-.66.449-1.466,0.686-2.127v-0.275h0.069v-0.2h0.068v-0.275c0.738-2.037,1.186-4.344,1.921-6.381v-0.275h0.069V107.13h0.068v-0.274h0.069V106.65h0.069c0.022-.16.045-0.32,0.068-0.48h0.069c0.023-.161.045-0.321,0.068-0.481H480.1l0.069-.48h0.068v-0.275h0.069v-0.2h0.068v-0.275h0.069v-0.206h0.068l0.069-.48h0.069c0.023-.16.045-0.32,0.068-0.48h0.069c0.023-.161.046-0.321,0.068-0.481h0.069v-0.274c0.683-1.879,1.105-4.022,1.784-5.9V96.357h0.068V96.151h0.069c0.023-.16.046-0.32,0.068-0.48h0.069l0.069-.48h0.068l0.069-.48h0.068V94.436h0.069V94.23h0.069c0.022-.16.045-0.32,0.068-0.48h0.069c0.023-.16.046-0.32,0.068-0.48h0.069l0.069-.48H483.8V92.514c0.6-1.662.978-3.546,1.578-5.215q0.137-.618.274-1.235c0.489-1.343.817-2.9,1.3-4.254q0.137-.618.274-1.235c0.432-1.187.736-2.578,1.166-3.774q0.138-.618.275-1.235c0.263-.728.491-1.6,0.754-2.333V72.958H489.5V72.752h0.068V72.478h0.069V72.272H489.7c0.022-.16.045-0.32,0.068-0.48h0.069c0.023-.16.046-0.32,0.068-0.48h0.069l0.069-.48h0.068V70.556h0.069V70.35h0.068V70.076c0.682-1.881,1.105-4.02,1.784-5.9V63.9h0.069V63.694h0.068V63.42c0.352-.972.611-2.115,0.961-3.088q0.137-.618.274-1.235c0.8-2.191,1.269-4.667,2.058-6.862V51.96h0.068V51.755H495.6l0.069-.48h0.068l0.069-.48h0.068V50.52c0.717-1.978,1.14-4.194,1.853-6.176V44.069H497.8V43.863h0.069c0.023-.16.045-0.32,0.068-0.48H498l0.069-.48h0.068V42.628c0.489-1.344.817-2.9,1.3-4.254q0.137-.618.274-1.235c0.432-1.187.736-2.578,1.166-3.774q0.138-.618.274-1.235c0.264-.728.492-1.6,0.755-2.333V29.522h0.069V29.316h0.068V29.042h0.069V28.836h0.068l0.069-.48h0.069c0.022-.16.045-0.32,0.068-0.48h0.069c0.023-.16.046-0.32,0.068-0.48H502.6V27.12h0.069V26.915h0.068V26.64c0.738-2.037,1.185-4.344,1.921-6.382V19.984h0.069V19.778H504.8V19.5c0.352-.972.611-2.115,0.96-3.088V16.141h0.069V15.935h0.069V15.661h0.068V15.455h0.069c0.046-.229.091-0.457,0.137-0.686h0.069c0.023-.16.045-0.32,0.068-0.48h0.069c0.023-.16.046-0.32,0.068-0.48h0.069V13.534h0.069V13.328h0.068l0.069-.48h0.068l0.069-.48h0.069c0.023-.16.045-0.32,0.068-0.48h0.069V11.612h0.068V11.407H507.2V11.132c0.77-2.129,1.223-4.52,1.989-6.656V4.2h0.069V4h0.069V3.79h0.068V3.515c0.295-.816.531-1.791,0.823-2.608V0.633h0.069V0.428h0.069V0.153h0.068l0.069-.48h0.068A1.73,1.73,0,0,1,511.381-.4H690.215a3.694,3.694,0,0,1-.274.686l-0.069.412H689.8l-0.138.618H689.6V1.525h-0.069V1.731h-0.068V1.937h-0.069V2.143h-0.069V2.349h-0.068l-0.069.412h-0.068l-0.069.412H688.98l-0.411,1.441c-0.608,1.518-1.04,3.216-1.647,4.735q-0.068.309-.137,0.618h-0.068v0.206h-0.069v0.206h-0.069v0.206h-0.068v0.206h-0.069v0.206h-0.068V11.2h-0.069l-0.069.412h-0.068l-0.069.412c-0.847,2.12-1.418,4.467-2.263,6.587l-0.069.412H683.7v0.206H683.63v0.206h-0.069v0.206h-0.068v0.206h-0.069v0.206h-0.069v0.206h-0.068v0.206h-0.069c-0.046.206-.091,0.412-0.137,0.618h-0.069v0.206h-0.068v0.206h-0.069V21.7h-0.068v0.206h-0.069v0.206h-0.069c-0.023.137-.045,0.274-0.068,0.412h-0.069c-0.023.137-.046,0.274-0.068,0.412H682.4q-0.069.309-.137,0.618h-0.069v0.137h-0.068V23.9h-0.069V24.1h-0.069v0.206h-0.068v0.206h-0.069v0.206h-0.068v0.206h-0.069V25.13H681.64c-0.022.137-.045,0.274-0.068,0.412-0.687,1.72-1.166,3.632-1.852,5.352q-0.207.72-.412,1.441c-0.607,1.519-1.041,3.215-1.646,4.735q-0.173.617-.343,1.235c-0.473,1.184-.832,2.521-1.3,3.705v0.206h-0.068v0.206h-0.069v0.206H675.81v0.206h-0.069V43.04c-0.366.915-.664,1.966-1.029,2.882v0.206h-0.069v0.206h-0.068V46.54h-0.069v0.206c-0.861,2.157-1.467,4.556-2.332,6.725l-0.069.412h-0.068v0.206h-0.069v0.206H671.9V54.5h-0.069v0.206h-0.069v0.206h-0.068l-0.069.412h-0.069v0.206h-0.068q-0.069.309-.137,0.617c-0.286.714-.539,1.55-0.823,2.264l-0.138.618c-0.312.781-.58,1.689-0.891,2.47l-0.138.618c-0.312.781-.58,1.689-0.891,2.47v0.206H668.4V65h-0.069V65.2h-0.068V65.41c-0.259.647-.5,1.411-0.755,2.059q-0.067.309-.137,0.618c-0.709,1.775-1.214,3.718-1.921,5.49-0.023.137-.045,0.274-0.068,0.412h-0.069v0.206h-0.068V74.4h-0.069V74.6h-0.069v0.206H665.04v0.206h-0.069v0.206H664.9v0.206h-0.069v0.206h-0.069V75.84H664.7v0.206c-0.366.915-.664,1.966-1.029,2.882q-0.069.309-.137,0.618c-0.286.714-.539,1.55-0.824,2.264q-0.067.309-.137,0.618c-0.9,2.254-1.5,4.745-2.4,7-0.023.137-.045,0.274-0.068,0.412h-0.069v0.206h-0.069V90.25H659.9v0.206h-0.069v0.206h-0.068v0.206h-0.069v0.206H659.62v0.206h-0.068q-0.069.309-.137,0.617c-0.312.781-.581,1.689-0.892,2.47v0.206h-0.069v0.206h-0.068v0.206h-0.069v0.206h-0.068v0.137H658.18q-0.069.309-.137,0.618c-0.259.647-.5,1.412-0.755,2.059V98.21H657.22v0.206h-0.069v0.206h-0.069v0.206c-0.927,2.321-1.544,4.884-2.469,7.2l-0.069.412h-0.068v0.206h-0.069v0.206h-0.069v0.206H654.27v0.2H654.2v0.206h-0.068v0.206h-0.069v0.206H654q-0.067.309-.137,0.618H653.79v0.2h-0.069v0.206h-0.069v0.206h-0.068v0.206h-0.069v0.206h-0.068l-0.069.412h-0.069c-0.022.137-.045,0.274-0.068,0.411h-0.069c-0.023.138-.045,0.275-0.068,0.412-0.821,2.054-1.376,4.328-2.2,6.382l-0.069.411h-0.069v0.206H650.7v0.206h-0.069v0.206h-0.068v0.206H650.5v0.206h-0.069v0.2H650.36V119c-0.651,1.615-1.133,3.446-1.784,5.078l-0.411,1.441c-0.5,1.251-.874,2.66-1.372,3.911v0.206h-0.069v0.206h-0.068v0.206h-0.069v0.206h-0.069v0.206c-0.392.982-.705,2.1-1.1,3.088v0.2h-0.069v0.206h-0.068v0.206h-0.069v0.206c-0.312.781-.58,1.689-0.892,2.47-0.046.206-.091,0.412-0.137,0.618h-0.069v0.206h-0.068v0.206H643.98v0.2h-0.068v0.206h-0.069v0.206h-0.069c-0.022.137-.045,0.275-0.068,0.412h-0.069c-0.023.137-.046,0.274-0.068,0.412H643.5c-0.046.205-.091,0.411-0.137,0.617q-1.1,3.156-2.2,6.313l-0.069.412H641.03v0.206h-0.068v0.206h-0.069v0.2h-0.068v0.206h-0.069v0.206h-0.069c-0.022.137-.045,0.275-0.068,0.412H640.55V148.3c-0.82,2.053-1.376,4.327-2.195,6.381-0.023.137-.046,0.275-0.068,0.412h-0.069V155.3h-0.069v0.206h-0.068v0.206h-0.069v0.205h-0.068v0.206h-0.069v0.206h-0.069q-0.068.309-.137,0.618c-0.312.781-.58,1.689-0.892,2.47q-0.068.309-.137,0.618c-0.312.781-.58,1.688-0.892,2.47v0.206H635.68v0.206h-0.069v0.2h-0.068v0.206c-0.259.647-.5,1.412-0.755,2.059-0.046.206-.091,0.412-0.137,0.617-0.915,2.291-1.552,4.834-2.47,7.137v0.206h-0.068v0.206h-0.069v0.2h-0.068v0.206c-0.366.916-.664,1.967-1.029,2.882l-0.138.618c-0.82,2.053-1.376,4.327-2.195,6.381-0.023.138-.045,0.275-0.068,0.412h-0.069v0.206h-0.069v0.206H628.34v0.206h-0.069v0.206H628.2v0.205h-0.069v0.206h-0.069q-0.342,1.132-.685,2.265c-0.286.714-.539,1.55-0.824,2.264v0.206h-0.068v0.206h-0.069v0.206h-0.068v0.206h-0.069v0.137h-0.069c-0.023.137-.045,0.274-0.068,0.411h-0.069V191.6h-0.068v0.206h-0.069v0.206H625.87v0.206H625.8v0.206h-0.069c-0.023.137-.046,0.274-0.068,0.411H625.6q-0.069.309-.137,0.618c-0.82,2.054-1.376,4.328-2.195,6.382v0.206H623.2v0.205h-0.069v0.206h-0.068v0.206c-0.366.915-.664,1.966-1.029,2.882v0.206H621.96v0.206h-0.068v0.206h-0.069v0.205h-0.069v0.206c-0.5,1.251-.873,2.661-1.371,3.912q-0.207.72-.412,1.441c-0.652,1.631-1.134,3.462-1.784,5.077v0.206h-0.068v0.206H618.05v0.206h-0.068v0.206h-0.069v0.206h-0.069v0.206h-0.068v0.2h-0.069c-0.023.138-.046,0.275-0.068,0.412-0.795,1.989-1.334,4.187-2.127,6.176-0.046.206-.091,0.412-0.137,0.617h-0.069v0.206h-0.068v0.206h-0.069v0.206H615.1v0.206h-0.068v0.206h-0.069c-0.023.137-.045,0.274-0.068,0.411h-0.069c-0.023.138-.046,0.275-0.068,0.412h-0.069l-0.069.412c-0.927,2.321-1.544,4.883-2.469,7.205l-0.069.412h-0.068v0.205h-0.069v0.206h-0.069v0.206h-0.068v0.206h-0.069v0.206h-0.068l-0.069.412h-0.069v0.205h-0.068q-0.069.309-.137,0.618c-0.259.647-.5,1.412-0.755,2.059-0.046.205-.091,0.411-0.137,0.617h-0.069V238.6H610.3v0.206H610.23v0.206h-0.069v0.206h-0.068v0.206c-0.312.781-.58,1.689-0.892,2.47-0.046.206-.091,0.412-0.137,0.618-0.285.714-.539,1.55-0.823,2.264q-0.069.309-.137,0.618c-0.874,2.187-1.46,4.6-2.333,6.793-0.023.137-.046,0.275-0.068,0.412h-0.069v0.206h-0.069v0.205H605.5v0.206h-0.069v0.206H605.36v0.206h-0.069v0.206h-0.069v0.206h-0.068v0.206h-0.069v0.205h-0.068v0.206h-0.069v0.206h-0.069v0.206c-0.446,1.117-.789,2.383-1.234,3.5v0.205h-0.069v0.206h-0.069v0.206h-0.068V259.4c-0.285.714-.539,1.55-0.823,2.264v0.206h-0.069v0.206h-0.069v0.206H602.41v0.206h-0.069v0.137h-0.068l-0.138.618h-0.068v0.206H602v0.2H601.93v0.206h-0.069v0.206h-0.069v0.206h-0.068l-0.069.412h-0.068l-0.069.411H601.45l-0.138.618c-0.82,2.053-1.376,4.327-2.2,6.382-0.023.137-.046,0.274-0.068,0.411H598.98v0.206h-0.069v0.206h-0.068v0.206h-0.069v0.206h-0.068v0.206h-0.069v0.205h-0.069v0.206H598.5v0.206h-0.069v0.206h-0.068v0.206h-0.069v0.206h-0.069v0.206c-0.446,1.116-.789,2.382-1.234,3.5q-0.173.618-.343,1.235c-0.634,1.586-1.083,3.354-1.715,4.941l-0.069.412h-0.069v0.2h-0.068v0.206h-0.069v0.206H594.59v0.206h-0.069v0.206h-0.068V286.3c-0.525,1.2-.882,2.613-1.372,3.842v0.206h-0.069v0.206h-0.069v0.206h-0.068v0.206h-0.069v0.206c-0.285.714-.538,1.55-0.823,2.264-0.046.206-.091,0.412-0.137,0.618-0.9,2.254-1.5,4.744-2.4,7l-0.069.412h-0.068v0.205h-0.069v0.206h-0.068v0.206H589.1v0.206h-0.069v0.206h-0.068V302.7H588.9V302.9h-0.068l-0.138.617c-0.285.714-.538,1.55-0.823,2.264-0.023.138-.046,0.275-0.068,0.412-0.655,1.638-1.135,3.451-1.784,5.078q-0.205.72-.412,1.441c-0.526,1.318-.915,2.8-1.44,4.117v0.206h-0.069v0.206h-0.068v0.206h-0.069v0.206h-0.069v0.2c-0.392.983-.705,2.106-1.1,3.088v0.206h-0.069v0.206h-0.068v0.206h-0.069v0.206c-0.312.781-.58,1.689-0.892,2.47q-0.067.309-.137,0.618c-0.258.647-.5,1.411-0.754,2.058l-0.138.618c-0.687,1.72-1.166,3.632-1.852,5.352-0.023.137-.045,0.275-0.068,0.412h-0.069c-0.046.206-.091,0.412-0.137,0.617h-0.069v0.138H578.4v0.205h-0.069v0.206h-0.069c-0.022.138-.045,0.275-0.068,0.412h-0.069v0.206h-0.068v0.206h-0.069V335.5H577.92v0.2h-0.068v0.206h-0.069v0.206h-0.068v0.206c-0.821,2.053-1.376,4.327-2.2,6.382q-0.342,1.131-.685,2.264c-0.821,2.054-1.377,4.328-2.2,6.382-0.022.137-.045,0.274-0.068,0.411H572.5v0.206h-0.068v0.206h-0.069v0.206h-0.069v0.206h-0.068v0.206h-0.069v0.205H572.09V353.2h-0.069q-0.343,1.132-.686,2.265c-0.629,1.574-1.087,3.3-1.715,4.872q-0.206.72-.412,1.441H569.14l-0.069.411H569v0.206h-0.069V362.6h-0.068v0.206H568.8v0.206h-0.069v0.206H568.66v0.206h-0.069v0.2h-0.068l-0.138.618h-0.068v0.206h-0.069v0.206H568.18v0.206h-0.069v0.205h-0.069v0.206h-0.068v0.206h-0.069c-0.023.137-.046,0.275-0.068,0.412h-0.069l-0.069.412c-0.767,1.921-1.291,4.048-2.058,5.969-0.022.138-.045,0.275-0.068,0.412H565.5v0.206h-0.068V373.1h-0.069V373.3H565.3v0.206H565.23v0.2h-0.069v0.206h-0.068l-0.069.412h-0.069v0.206h-0.068v0.206h-0.069v0.206H564.75v0.2h-0.069v0.206h-0.069c-0.022.138-.045,0.275-0.068,0.412h-0.069v0.206c-0.553,1.385-.957,2.938-1.509,4.323l-0.411,1.441h-0.069v0.137h-0.069l-0.411,1.441c-0.527,1.318-.915,2.8-1.441,4.117l-0.411,1.441c-0.473,1.184-.832,2.522-1.3,3.706v0.206h-0.068V393h-0.069V393.2h-0.069v0.206h-0.068v0.206c-0.366.915-.664,1.966-1.029,2.882V396.7h-0.069v0.206H557.41v0.206h-0.069v0.2c-0.285.714-.538,1.551-0.823,2.265q-0.069.309-.137,0.617h-0.069v0.206h-0.069v0.206h-0.068v0.206h-0.069v0.206h-0.068v0.206h-0.069c-0.023.137-.046,0.274-0.068,0.411h-0.069l-0.069.412H555.7q-0.069.309-.137,0.618l-2.2,6.313c-0.022.137-.045,0.274-0.068,0.411h-0.069V409.6h-0.068v0.206h-0.069v0.206h-0.069v0.206h-0.068v0.206h-0.069c-0.023.137-.046,0.274-0.068,0.411h-0.069v0.206c-0.741,1.854-1.25,3.91-1.989,5.764l-0.069.412h-0.068v0.206H550.55v0.206h-0.069v0.2h-0.068v0.206h-0.069v0.206h-0.069v0.206h-0.068q-0.344,1.132-.686,2.265c-0.58,1.451-1,3.076-1.578,4.528q-0.171.618-.343,1.236c-0.285.714-.538,1.55-0.823,2.264v0.206h-0.069v0.206H546.64v0.206h-0.069v0.205H546.5v0.138h-0.069c-0.046.2-.091,0.411-0.137,0.617h-0.069v0.206H546.16v0.206h-0.069v0.206h-0.069v0.206h-0.068v0.205h-0.069v0.206h-0.068l-0.069.412h-0.069q-0.067.309-.137,0.618c-0.82,2.053-1.376,4.327-2.2,6.381-0.023.137-.046,0.275-0.068,0.412H543.21v0.206h-0.069V439.8h-0.068V440H543v0.206h-0.068v0.206h-0.069v0.206H542.8v0.206H542.73v0.206h-0.069v0.206h-0.068v0.2h-0.069v0.206c-0.446,1.117-.79,2.383-1.235,3.5l-0.411,1.441c-0.634,1.586-1.083,3.354-1.715,4.94l-0.069.412h-0.069v0.206h-0.068v0.206h-0.069v0.206H538.82v0.206h-0.069v0.205h-0.069v0.206h-0.068v0.206c-0.524,1.2-.882,2.614-1.372,3.843v0.206h-0.069v0.206h-0.068v0.2h-0.069v0.206h-0.068v0.206c-0.286.714-.539,1.55-0.824,2.265q-0.067.308-.137,0.617c-0.9,2.254-1.5,4.745-2.4,7-0.023.138-.046,0.275-0.068,0.412h-0.069v0.206H533.4v0.206h-0.068v0.206h-0.069v0.2H533.2v0.206h-0.069v0.206h-0.069v0.206h-0.068q-0.069.309-.137,0.618c-0.259.647-.5,1.411-0.755,2.058l-0.069.412c-0.285.714-.538,1.55-0.823,2.264q-0.068.309-.137,0.618c-0.783,1.962-1.34,4.134-2.126,6.107l-0.069.412H528.8v0.206h-0.068v0.2h-0.069v0.206H528.6V483.3H528.53v0.206h-0.069v0.206h-0.068v0.206h-0.069c-0.046.206-.091,0.411-0.137,0.617-0.258.647-.5,1.412-0.755,2.059-0.022.137-.045,0.274-0.068,0.412-0.847,2.12-1.419,4.466-2.264,6.587l-0.069.412h-0.068v0.206h-0.069v0.2h-0.068v0.206h-0.069v0.206h-0.068v0.206H524.62v0.206h-0.069v0.206c-0.552,1.385-.958,2.937-1.509,4.323q-0.171.616-.343,1.235h-0.068v0.206h-0.069v0.137h-0.069q-0.068.309-.137,0.617h-0.068v0.206h-0.069v0.206H522.15v0.206h-0.068v0.206h-0.069v0.206h-0.068l-0.069.412h-0.069c-0.022.137-.045,0.274-0.068,0.411H521.67v0.206H521.6v0.206h-0.069v0.206h-0.069v0.206H521.4v0.206h-0.069v0.205h-0.068v0.206H521.19v0.206h-0.069v0.206h-0.068v0.206h-0.069c-0.023.137-.045,0.274-0.068,0.412h-0.069v0.2h-0.069v7.686h0.069l0.069,0.549c0.454,1.272.711,2.772,1.166,4.048v0.275c0.106,0.31.238,0.723,0.343,1.029v0.274c0.577,1.606.867,3.474,1.44,5.078l0.069,0.549c0.105,0.306.237,0.719,0.343,1.03v0.274c0.579,1.607.866,3.471,1.44,5.078q0.1,0.514.206,1.029h0.069q0.034,0.274.068,0.549c0.106,0.306.237,0.718,0.343,1.029v0.275c0.7,1.933,1.022,4.169,1.715,6.107v0.274c0.106,0.306.237,0.719,0.343,1.03v0.274c0.579,1.607.866,3.471,1.441,5.078,0.046,0.274.091,0.549,0.137,0.823,0.459,1.275.711,2.776,1.166,4.049l0.138,0.823c0.371,1.031.591,2.263,0.96,3.294q0.035,0.274.068,0.549c0.252,0.7.437,1.567,0.686,2.264l0.138,0.824h0.068v0.206h0.069v0.274H533.4v0.275h0.069l0.069,0.48h0.068v0.274h0.069q0.034,0.274.068,0.549c0.665,1.845.986,3.986,1.647,5.833q0.035,0.274.068,0.549h0.069v0.274H535.6v0.206h0.068v0.275h0.069V570.1H535.8l0.069,0.481h0.069c0.045,0.274.091,0.549,0.137,0.823h0.068v0.206h0.069v0.274h0.069v0.275h0.068l0.069,0.48h0.068v0.275h0.069l0.069,0.549h0.068v0.206h0.069c0.045,0.251.091,0.5,0.137,0.754h0.069V574.7h0.068q0.069,0.376.137,0.755h0.069c0.046,0.274.091,0.549,0.137,0.823h0.069v0.206h0.068v0.274h0.069v0.275h0.069c0.022,0.16.045,0.32,0.068,0.48h0.069v0.275h0.068l0.069,0.549H538v0.205h0.068q0.069,0.378.137,0.755h0.069v0.275h0.068l0.069,0.549c0.578,1.605.867,3.474,1.441,5.078q0.067,0.411.137,0.823c0.251,0.7.436,1.566,0.686,2.264,0.046,0.275.091,0.549,0.137,0.824h0.069v0.206h0.068c0.046,0.251.092,0.5,0.137,0.754h0.069v0.275h0.069c0.045,0.252.091,0.5,0.137,0.755h0.068l0.138,0.823h0.068v0.206H541.7V592.4h0.068v0.275h0.069l0.069,0.48h0.068v0.275h0.069c0.023,0.183.045,0.366,0.068,0.549h0.069v0.206h0.069c0.045,0.251.091,0.5,0.137,0.754h0.068v0.275h0.069l0.069,0.549c0.578,1.6.866,3.474,1.44,5.078,0.046,0.274.092,0.549,0.137,0.823h0.069v0.206h0.069v0.274h0.068v0.275h0.069c0.023,0.16.045,0.32,0.068,0.48h0.069v0.275h0.068l0.069,0.549h0.069v0.205h0.068v0.275h0.069v0.274h0.068l0.069,0.481h0.069c0.023,0.183.045,0.366,0.068,0.549h0.069v0.206h0.068v0.274h0.069v0.275h0.069c0.023,0.16.045,0.32,0.068,0.48h0.069v0.274h0.068l0.069,0.549c0.579,1.607.866,3.471,1.441,5.078,0.045,0.275.091,0.549,0.137,0.824h0.068v0.205h0.069v0.275h0.069v0.274H547.6l0.069,0.481h0.068v0.274h0.069l0.069,0.549h0.068v0.206h0.069c0.046,0.252.091,0.5,0.137,0.755h0.069v0.274h0.068l0.069,0.549c0.7,1.937,1.022,4.17,1.715,6.107,0.023,0.183.045,0.366,0.068,0.549,0.105,0.306.237,0.719,0.343,1.03v0.274c0.579,1.605.865,3.469,1.441,5.078q0.034,0.274.068,0.549c0.105,0.305.237,0.718,0.343,1.029V632.2c0.459,1.271.71,2.772,1.167,4.048,0.045,0.275.091,0.549,0.137,0.824,0.458,1.271.71,2.772,1.166,4.048,0.046,0.274.091,0.549,0.137,0.823,0.34,0.945.554,2.075,0.892,3.02,0.046,0.274.091,0.549,0.137,0.823h0.069V646h0.068v0.274h0.069v0.275h0.068l0.069,0.48h0.069V647.3h0.068l0.069,0.549h0.069v0.206h0.068c0.046,0.251.092,0.5,0.137,0.754h0.069v0.275h0.069q0.033,0.275.068,0.549c0.578,1.605.867,3.474,1.441,5.078,0.023,0.183.045,0.366,0.068,0.549h0.069v0.274h0.068v0.206h0.069v0.274h0.069v0.275h0.068l0.069,0.48h0.068l0.138,0.824h0.068V657.8h0.069v0.274h0.068v0.274H559.4l0.069,0.481h0.068q0.069,0.376.137,0.755h0.069c0.046,0.274.091,0.549,0.137,0.823,0.251,0.7.436,1.566,0.686,2.264,0.046,0.275.092,0.549,0.137,0.824h0.069V663.7h0.069v0.274h0.068v0.275h0.069c0.023,0.16.046,0.32,0.068,0.48h0.069c0.046,0.252.091,0.5,0.137,0.755h0.069c0.045,0.274.091,0.549,0.137,0.823h0.069v0.206h0.068v0.275h0.069v0.274h0.068l0.069,0.48h0.069v0.275h0.068l0.069,0.549h0.068v0.206h0.069v0.274h0.069v0.275h0.068l0.069,0.48h0.068l0.069,0.549c0.578,1.605.867,3.474,1.44,5.078l0.138,0.823c0.371,1.03.591,2.263,0.96,3.294,0.046,0.274.092,0.549,0.137,0.823,0.665,1.845.986,3.986,1.647,5.833q0.033,0.274.068,0.549c0.105,0.306.237,0.718,0.343,1.029v0.275c0.579,1.606.866,3.471,1.441,5.077,0.045,0.275.091,0.549,0.137,0.824,0.46,1.276.709,2.77,1.166,4.048,0.046,0.275.092,0.549,0.137,0.824,0.34,0.942.555,2.078,0.892,3.019,0.046,0.275.092,0.549,0.137,0.824H571.2v0.2h0.068v0.275h0.069v0.274H571.4c0.023,0.16.045,0.321,0.068,0.481h0.069v0.274h0.068l0.069,0.549h0.069v0.206h0.068v0.274h0.069v0.275h0.068l0.069,0.48h0.069q0.033,0.274.068,0.549c0.7,1.936,1.023,4.172,1.715,6.107,0.046,0.275.092,0.549,0.137,0.824,0.579,1.606.866,3.471,1.441,5.078q0.034,0.274.068,0.549c0.106,0.3.237,0.718,0.344,1.029v0.274h0.068v0.206H576v0.275h0.068v0.274h0.069l0.069,0.48h0.068v0.275h0.069c0.023,0.183.045,0.366,0.068,0.549h0.069v0.206h0.069c0.045,0.251.091,0.5,0.137,0.754h0.068v0.275h0.069q0.035,0.274.068,0.549c0.579,1.607.866,3.471,1.441,5.078l0.069,0.549h0.068v0.274h0.069v0.206h0.068V730.4h0.069v0.274h0.069c0.023,0.16.045,0.32,0.068,0.48h0.069c0.046,0.275.091,0.549,0.137,0.824h0.069v0.206h0.068v0.274h0.069v0.275h0.068l0.069,0.48h0.069q0.068,0.376.137,0.755h0.068l0.138,0.823c0.577,1.607.867,3.47,1.44,5.078q0.1,0.515.206,1.029h0.069q0.033,0.344.068,0.686h0.069v0.275h0.068v0.206h0.069c0.046,0.251.091,0.5,0.137,0.755h0.069c0.045,0.274.091,0.549,0.137,0.823h0.069c0.045,0.252.091,0.5,0.137,0.755H392.569v-0.069H392.5a3.537,3.537,0,0,0-.274-1.1v-0.274h-0.069V742.68h-0.068v-0.274H392.02v-0.275h-0.068v-0.343h-0.069v-0.274h-0.069v-0.137h-0.068c-0.046-.275-0.092-0.549-0.137-0.824-0.3-.869-0.458-1.942-0.755-2.813l-0.549-2.539c-0.111-.323-0.233-0.775-0.343-1.1v-0.275h-0.068q-0.069-.446-0.137-0.892c-0.2-.591-0.357-1.326-0.549-1.921v-0.343c-0.519-1.59-.791-3.418-1.3-5.009q-0.1-.583-0.2-1.167c-0.451-1.315-.672-2.864-1.1-4.185v-0.344h-0.069v-0.274h-0.068v-0.275H386.4v-0.274h-0.068V718.87h-0.069V718.6h-0.069v-0.274h-0.068v-0.275h-0.069v-0.274h-0.068v-0.344c-0.459-1.409-.689-3.055-1.167-4.46q-0.067-.445-0.137-0.892c-0.459-1.41-.689-3.057-1.166-4.46-0.046-.3-0.091-0.6-0.137-0.892-0.223-.684-0.4-1.511-0.617-2.2q-0.1-.583-0.206-1.166c-0.172-.5-0.318-1.142-0.48-1.647q-0.1-.584-0.206-1.167c-0.111-.323-0.233-0.774-0.343-1.1v-0.274h-0.069c-0.046-.3-0.091-0.6-0.137-0.892-0.2-.591-0.357-1.326-0.549-1.922v-0.343c-0.488-1.5-.751-3.233-1.234-4.734l-0.069-.618c-0.232-.68-0.4-1.511-0.618-2.2v-0.343c-0.193-.6-0.347-1.329-0.548-1.921l-0.069-.618c-0.488-1.5-.728-3.242-1.235-4.734q-0.033-.309-0.068-0.618H376.86v-0.274h-0.068v-0.275h-0.069v-0.274h-0.069q-0.171-.823-0.343-1.647h-0.068q-0.069-.447-0.137-0.892c-0.359-1.048-.535-2.313-0.892-3.363-0.046-.274-0.092-0.549-0.137-0.823-0.273-.8-0.419-1.75-0.686-2.539l-0.069-.618c-0.223-.684-0.386-1.514-0.617-2.2l-0.069-.618c-0.194-.6-0.348-1.329-0.549-1.921-0.023-.206-0.045-0.412-0.068-0.618-0.518-1.589-.791-3.417-1.3-5.009-0.045-.3-0.091-0.6-0.137-0.892-0.419-1.226-.611-2.684-1.029-3.911-0.046-.3-0.091-0.6-0.137-0.893-0.223-.683-0.4-1.511-0.617-2.2v-0.343c-0.223-.685-0.387-1.515-0.618-2.2q-0.035-.309-0.068-0.618c-0.194-.6-0.348-1.329-0.549-1.921l-0.069-.618c-0.517-1.589-.79-3.417-1.3-5.009l-0.069-.617c-0.232-.681-0.4-1.512-0.617-2.2v-0.343c-0.194-.6-0.348-1.33-0.549-1.922l-0.069-.617c-0.517-1.59-.79-3.417-1.3-5.009q-0.035-.309-0.068-0.618c-0.233-.68-0.4-1.511-0.618-2.2v-0.343c-0.488-1.5-.729-3.243-1.235-4.735q-0.033-.308-0.068-0.617h-0.069v-0.275h-0.068v-0.274h-0.069v-0.275h-0.069v-0.274h-0.068v-0.275H362.18v-0.274h-0.068V619.44h-0.069v-0.274h-0.069v-0.343c-0.487-1.5-.728-3.242-1.234-4.735l-0.069-.617H360.6V613.2h-0.068v-0.274h-0.069v-0.275H360.4v-0.274h-0.069V612.1H360.26v-0.274h-0.069v-0.275h-0.069v-0.274h-0.068v-0.343c-0.459-1.41-.689-3.056-1.166-4.461l-0.138-.892c-0.458-1.409-.688-3.055-1.166-4.46-0.046-.3-0.091-0.6-0.137-0.892-0.223-.684-0.386-1.515-0.617-2.2l-0.069-.617c-0.194-.6-0.348-1.33-0.549-1.922q-0.034-.307-0.068-0.617c-0.488-1.5-.729-3.242-1.235-4.735l-0.069-.617h-0.068v-0.275H354.7v-0.274h-0.069V588.7h-0.068q-0.171-.823-0.343-1.647h-0.069v-0.343h-0.068v-0.274h-0.069V586.16h-0.069v-0.274H353.88v-0.275h-0.069v-0.274h-0.068v-0.275h-0.069v-0.274h-0.069v-0.275h-0.068l-0.069-.617c-0.479-1.4-.689-3.055-1.166-4.46q-0.035-.309-0.068-0.618h-0.069v-0.275H352.1v-0.274h-0.068V578h-0.069c-0.023-.183-0.046-0.367-0.068-0.549h-0.069v-0.275h-0.069V576.9h-0.068v-0.275h-0.069v-0.274h-0.068v-0.343c-0.488-1.5-.729-3.244-1.235-4.735l-0.069-.618h-0.068v-0.274h-0.069V570.1h-0.069v-0.274H349.97v-0.275H349.9V569.28h-0.068v-0.275h-0.069v-0.274H349.7v-0.275h-0.068v-0.343c-0.488-1.5-.729-3.243-1.235-4.734l-0.069-.618h-0.068v-0.274h-0.069v-0.275h-0.068v-0.274h-0.069v-0.275H347.98v-0.274h-0.068v-0.275h-0.069V560.84h-0.068v-0.275h-0.069v-0.343c-0.459-1.409-.688-3.055-1.166-4.46-0.046-.3-0.092-0.595-0.137-0.892-0.459-1.41-.689-3.056-1.166-4.46l-0.138-.892c-0.222-.685-0.386-1.515-0.617-2.2l-0.069-.618c-0.193-.595-0.348-1.329-0.548-1.921l-0.069-.618c-0.488-1.5-.728-3.242-1.235-4.734q-0.034-.309-0.068-0.618h-0.069v-0.274h-0.069v-0.275h-0.068V537.99h-0.069q-0.171-.823-0.343-1.647h-0.068l-0.069-.618c-0.2-.591-0.357-1.326-0.549-1.921v-0.343c-0.517-1.59-.79-3.417-1.3-5.009v-0.344c-0.164-.5-0.309-1.144-0.48-1.646l-0.069-.549h-0.068l-0.069-.618c-0.232-.68-0.4-1.511-0.617-2.2v-0.343c-0.489-1.5-.729-3.243-1.235-4.735l-0.069-.617h-0.068v-0.275h-0.069v-0.274h-0.069V516.58h-0.068v-0.274h-0.069v-0.275h-0.068v-0.274H336.8v-0.275H336.73v-0.274h-0.068v-0.343c-0.518-1.589-.79-3.417-1.3-5.009v-0.343H335.29v-0.275c-0.111-.323-0.233-0.774-0.343-1.1v-0.274h-0.069v-0.275H334.81v-0.274h-0.069v-0.275h-0.069V506.7c-0.458-1.41-.689-3.057-1.166-4.46-0.045-.3-0.091-0.595-0.137-0.892-0.459-1.41-.689-3.057-1.166-4.46q-0.069-.447-0.137-0.892c-0.223-.684-0.4-1.512-0.618-2.2-0.023-.206-0.045-0.412-0.068-0.618-0.2-.592-0.348-1.328-0.549-1.921l-0.069-.618c-0.193-.594-0.347-1.329-0.548-1.921l-0.069-.617c-0.518-1.591-.791-3.419-1.3-5.01v-0.343h-0.069v-0.274H328.7V482.2h-0.068v-0.274h-0.069v-0.275H328.5v-0.274H328.43V481.1h-0.069V480.83h-0.068v-0.275h-0.069c-0.023-.2-0.045-0.411-0.068-0.617-0.48-1.4-.689-3.055-1.166-4.46l-0.069-.618h-0.069v-0.274h-0.068v-0.275h-0.069v-0.274h-0.068l-0.069-.549h-0.069v-0.275h-0.068v-0.274h-0.069v-0.275H326.3V472.39h-0.069v-0.343c-0.488-1.5-.729-3.243-1.235-4.735q-0.035-.309-0.068-0.618h-0.069V466.42h-0.069v-0.275h-0.068v-0.274h-0.069V465.6h-0.068v-0.274H324.52v-0.275h-0.069v-0.274h-0.068V464.5h-0.069v-0.344c-0.459-1.409-.688-3.055-1.166-4.46-0.046-.3-0.091-0.595-0.137-0.892-0.459-1.409-.689-3.055-1.166-4.46l-0.138-.892c-0.222-.684-0.386-1.515-0.617-2.2l-0.069-.618c-0.193-.594-0.347-1.329-0.548-1.921L320.4,448.1c-0.193-.595-0.348-1.33-0.549-1.922-0.023-.206-0.045-0.412-0.068-0.617-0.518-1.59-.79-3.418-1.3-5.01q-0.1-.582-0.2-1.166c-0.45-1.314-.672-2.865-1.1-4.186v-0.343h-0.069v-0.274h-0.068v-0.275h-0.069v-0.274h-0.068v-0.275h-0.069v-0.274h-0.069v-0.275H316.7v-0.274h-0.069v-0.275h-0.068v-0.274h-0.069v-0.343c-0.223-.684-0.4-1.511-0.617-2.2q-0.1-.584-0.206-1.167c-0.172-.5-0.317-1.141-0.48-1.647q-0.1-.582-0.206-1.166c-0.111-.323-0.233-0.774-0.343-1.1v-0.274h-0.069q-0.067-.447-0.137-0.892c-0.2-.592-0.357-1.327-0.549-1.922v-0.343c-0.517-1.59-.79-3.418-1.3-5.009-0.046-.3-0.092-0.595-0.137-0.892-0.389-1.137-.574-2.5-0.961-3.637q-0.1-.583-0.2-1.167c-0.459-1.409-.69-3.056-1.167-4.46q-0.067-.446-0.137-0.892c-0.449-1.314-.649-2.868-1.1-4.186l-0.138-.892c-0.458-1.409-.688-3.055-1.166-4.46-0.045-.3-0.091-0.6-0.137-0.892-0.223-.684-0.386-1.515-0.617-2.2l-0.069-.617c-0.193-.595-0.348-1.33-0.549-1.922-0.023-.2-0.045-0.411-0.068-0.617-0.488-1.5-.729-3.242-1.235-4.735l-0.069-.617h-0.068v-0.275H304.7V383.6h-0.068v-0.275h-0.069q-0.171-.823-0.343-1.647h-0.069q-0.068-.446-0.137-0.892c-0.42-1.227-.612-2.685-1.029-3.911-0.045-.3-0.091-0.6-0.137-0.892-0.518-1.591-.791-3.418-1.3-5.009v-0.343c-0.165-.5-0.31-1.145-0.48-1.647l-0.138-.892h-0.068v-0.275c-0.111-.323-0.233-0.774-0.343-1.1l-0.069-.549h-0.068v-0.274h-0.069V365.55h-0.069v-0.275h-0.068V365H300.1v-0.275h-0.068v-0.274h-0.069v-0.275h-0.069c-0.045-.274-0.091-0.549-0.137-0.823-0.272-.8-0.418-1.75-0.686-2.539q-0.034-.309-0.068-0.618c-0.223-.684-0.387-1.514-0.618-2.195q-0.035-.309-0.068-0.618c-0.223-.684-0.4-1.511-0.618-2.2-0.023-.206-0.045-0.411-0.068-0.617-0.2-.593-0.348-1.329-0.549-1.922l-0.069-.617c-0.193-.595-0.348-1.33-0.548-1.922l-0.069-.617c-0.517-1.59-.79-3.417-1.3-5.009l-0.069-.618c-0.232-.68-0.4-1.511-0.617-2.2v-0.343c-0.194-.595-0.348-1.329-0.549-1.921l-0.069-.618c-0.488-1.5-.728-3.242-1.235-4.734q-0.033-.309-0.068-0.618h-0.069v-0.274h-0.068v-0.275h-0.069v-0.274H292.21q-0.171-.823-0.343-1.647H291.8l-0.069-.618c-0.2-.591-0.357-1.326-0.549-1.921v-0.343c-0.517-1.59-.79-3.417-1.3-5.009v-0.344c-0.164-.5-0.309-1.144-0.48-1.646l-0.069-.549h-0.068l-0.069-.618c-0.232-.68-0.4-1.511-0.617-2.2v-0.343c-0.488-1.5-.729-3.243-1.235-4.735l-0.069-.617H287.2v-0.275h-0.069v-0.274h-0.068V311.2H287v-0.274h-0.069v-0.275H286.86V310.38h-0.069v-0.274h-0.068v-0.275h-0.069v-0.343c-0.459-1.409-.688-3.056-1.166-4.46q-0.069-.447-0.137-0.892c-0.459-1.41-.689-3.056-1.167-4.461q-0.068-.446-0.137-0.892c-0.222-.684-0.386-1.514-0.617-2.195l-0.069-.618c-0.193-.6-0.348-1.329-0.549-1.921q-0.033-.309-0.068-0.618c-0.488-1.5-.728-3.242-1.235-4.735q-0.035-.308-0.068-0.617h-0.069V287.8H281.3V287.53h-0.068v-0.275h-0.069q-0.171-.823-0.343-1.646h-0.068l-0.069-.618c-0.2-.591-0.357-1.326-0.549-1.921v-0.344c-0.193-.594-0.348-1.329-0.549-1.921q-0.033-.309-0.068-0.617c-0.518-1.59-.79-3.418-1.3-5.01q-0.033-.308-0.068-0.617c-0.232-.68-0.4-1.511-0.618-2.2v-0.343c-0.193-.595-0.347-1.329-0.548-1.921l-0.069-.618c-0.517-1.589-.79-3.417-1.3-5.009l-0.069-.618c-0.232-.68-0.4-1.511-0.617-2.2v-0.343c-0.194-.594-0.348-1.329-0.549-1.921l-0.069-.618c-0.517-1.589-.79-3.417-1.3-5.009l-0.069-.617c-0.232-.68-0.4-1.512-0.617-2.2v-0.343c-0.488-1.5-.729-3.243-1.235-4.735-0.023-.206-0.045-0.412-0.068-0.618h-0.069v-0.274h-0.069v-0.274h-0.068v-0.275h-0.069v-0.274h-0.068v-0.275H270.6v-0.274h-0.069v-0.275h-0.068v-0.274H270.4v-0.343c-0.459-1.41-.689-3.058-1.166-4.461-0.046-.3-0.091-0.594-0.137-0.892-0.459-1.409-.689-3.057-1.166-4.46-0.046-.3-0.092-0.595-0.137-0.892-0.223-.684-0.4-1.511-0.618-2.2q-0.035-.309-0.068-0.617c-0.2-.593-0.348-1.329-0.549-1.922l-0.069-.617c-0.193-.595-0.348-1.33-0.549-1.922-0.022-.206-0.045-0.411-0.068-0.617-0.517-1.59-.79-3.417-1.3-5.009q-0.033-.309-0.068-0.618c-0.232-.68-0.4-1.511-0.618-2.2V215.96c-0.193-.595-0.347-1.329-0.548-1.921l-0.069-.618c-0.488-1.5-.728-3.242-1.235-4.735-0.023-.205-0.045-0.411-0.068-0.617H261.89v-0.275h-0.068V207.52h-0.069v-0.274h-0.069q-0.171-.823-0.343-1.647h-0.068l-0.069-.618c-0.2-.591-0.357-1.326-0.549-1.921v-0.343c-0.458-1.41-.689-3.058-1.166-4.461-0.046-.3-0.091-0.594-0.137-0.892-0.223-.684-0.4-1.511-0.617-2.195l-0.069-.618c-0.2-.592-0.348-1.329-0.549-1.921-0.023-.206-0.045-0.412-0.068-0.618-0.194-.595-0.348-1.329-0.549-1.921l-0.069-.618c-0.517-1.589-.79-3.417-1.3-5.009-0.046-.3-0.092-0.595-0.137-0.892-0.42-1.225-.612-2.684-1.029-3.911q-0.069-.447-0.137-0.892c-0.223-.685-0.387-1.515-0.618-2.2q-0.034-.309-0.068-0.618c-0.194-.595-0.348-1.329-0.549-1.921l-0.069-.618c-0.517-1.589-.79-3.417-1.3-5.009-0.046-.3-0.092-0.595-0.137-0.892-0.42-1.225-.612-2.684-1.029-3.911l-0.138-.892c-0.222-.684-0.4-1.511-0.617-2.2v-0.343c-0.223-.684-0.386-1.515-0.617-2.2l-0.069-.618c-0.193-.594-0.348-1.329-0.549-1.921q-0.033-.309-0.068-0.617c-0.518-1.59-.79-3.418-1.3-5.01-0.022-.206-0.045-0.411-0.068-0.617-0.233-.68-0.4-1.511-0.618-2.2v-0.343c-0.193-.595-0.348-1.33-0.548-1.922l-0.069-.617c-0.517-1.589-.79-3.417-1.3-5.009l-0.069-.618c-0.232-.68-0.4-1.511-0.617-2.2V135.95c-0.488-1.5-.729-3.243-1.235-4.734l-0.069-.618h-0.068v-0.275h-0.069v-0.274h-0.068v-0.275H242.82V129.5h-0.069v-0.274h-0.068v-0.275h-0.069v-0.274h-0.068V128.4h-0.069v-0.343c-0.488-1.5-.728-3.242-1.235-4.735q-0.1-.582-0.206-1.166c-0.45-1.317-.651-2.871-1.1-4.186-0.046-.3-0.092-0.595-0.137-0.892-0.45-1.315-.65-2.87-1.1-4.186-0.046-.3-0.091-0.594-0.137-0.892-0.223-.684-0.4-1.511-0.618-2.2q-0.033-.307-0.068-0.617c-0.2-.593-0.348-1.329-0.549-1.922q-0.034-.308-0.068-0.617c-0.194-.595-0.348-1.329-0.549-1.921l-0.069-.618c-0.517-1.589-.79-3.417-1.3-5.009q-0.069-.446-0.137-0.892c-0.42-1.225-.612-2.684-1.029-3.911l-0.138-.892c-0.251-.773-0.436-1.7-0.686-2.47q-0.068-.446-0.137-0.892c-0.172-.5-0.317-1.142-0.48-1.647q-0.1-.583-0.206-1.166c-0.172-.5-0.317-1.142-0.48-1.647l-0.069-.617c-0.2-.591-0.356-1.326-0.548-1.921V82.7c-0.518-1.591-.791-3.418-1.3-5.009q-0.067-.446-0.137-0.892c-0.42-1.227-.612-2.685-1.029-3.911-0.046-.3-0.091-0.595-0.137-0.892-0.488-1.5-.729-3.243-1.235-4.735q-0.034-.309-0.068-0.618h-0.069V66.371h-0.069V66.1h-0.068V65.822h-0.069V65.547H227.18V65.273h-0.069V65h-0.069V64.724h-0.068V64.449h-0.069V64.106c-0.488-1.5-.728-3.242-1.234-4.735q-0.1-.583-0.206-1.166c-0.45-1.315-.651-2.87-1.1-4.186-0.046-.3-0.091-0.595-0.137-0.892-0.449-1.315-.65-2.868-1.1-4.186Q223.064,48.5,223,48.049c-0.223-.684-0.386-1.515-0.617-2.2l-0.069-.617c-0.193-.595-0.348-1.329-0.549-1.921q-0.033-.309-0.068-0.618c-0.518-1.589-.79-3.417-1.3-5.009V37.345c-0.164-.505-0.309-1.144-0.48-1.647-0.023-.183-0.045-0.366-0.068-0.549h-0.069q-0.1-.583-0.206-1.166c-0.449-1.314-.671-2.865-1.1-4.186V29.453H218.4V29.179h-0.068V28.9h-0.069V28.63h-0.069V28.356h-0.068V28.081h-0.069V27.807h-0.068V27.532h-0.069V27.258H217.85V26.983h-0.068V26.64c-0.223-.684-0.4-1.511-0.618-2.2q-0.033-.309-0.068-0.617c-0.2-.592-0.348-1.328-0.549-1.921l-0.069-.618c-0.193-.595-0.348-1.329-0.548-1.921l-0.069-.618c-0.517-1.59-.791-3.417-1.3-5.009l-0.138-.892c-0.3-.872-0.483-1.922-0.754-2.813V9.417c-0.486-1.5-.728-3.239-1.235-4.735q-0.1-.583-0.206-1.166h-0.068V3.241c-0.11-.323-0.234-0.774-0.343-1.1l-0.069-.549A6.584,6.584,0,0,1,211.334-.533ZM273.14,302.283h2.127a6.593,6.593,0,0,0,.274.961v0.343h0.069v0.274h0.068v0.275h0.069v0.274h0.069q0.033,0.274.068,0.549c0.2,0.592.347,1.329,0.549,1.921q0.1,0.584.206,1.167c0.4,1.219.634,2.622,1.029,3.843v0.343h0.068v0.274c0.111,0.324.233,0.775,0.343,1.1v0.275c0.2,0.592.348,1.328,0.549,1.921l0.069,0.617c0.58,1.782.868,3.784,1.44,5.559q0.069,0.446.137,0.892c0.476,1.389.693,3,1.167,4.391q0.068,0.447.137,0.892c0.31,0.952.5,2.073,0.823,3.02,0.046,0.274.091,0.549,0.137,0.823,0.268,0.783.418,1.752,0.686,2.539l0.069,0.549c0.2,0.592.347,1.328,0.548,1.921l0.069,0.549c0.172,0.5.317,1.142,0.48,1.647v0.343c0.543,1.665.834,3.548,1.372,5.215V345.1h0.069v0.275H285.9v0.274h0.069v0.275h0.069V346.2h0.068v0.275c0.142,0.413.271,0.958,0.412,1.372q0.035,0.274.068,0.549c0.511,1.49.727,3.243,1.235,4.735q0.138,0.685.275,1.372h0.068l0.069,0.549H288.3v0.274h0.069V355.6h0.069v0.274h0.068v0.275h0.069v0.343c0.571,1.754.874,3.733,1.44,5.49v0.343h0.069V362.6h0.068v0.275h0.069v0.274h0.069v0.275h0.068V363.7c0.513,1.5.722,3.228,1.235,4.735q0.137,0.685.274,1.372c0.385,1.123.6,2.437,0.961,3.568q0.1,0.584.206,1.167c0.445,1.3.654,2.815,1.1,4.117,0.046,0.3.092,0.595,0.137,0.892,0.194,0.595.348,1.33,0.549,1.921l0.069,0.549c0.263,0.769.424,1.7,0.686,2.471,0.023,0.205.045,0.411,0.068,0.617,0.572,1.755.874,3.733,1.441,5.49q0.1,0.584.206,1.166c0.475,1.388.715,2.994,1.166,4.392q0.1,0.584.206,1.166c0.5,1.477.755,3.179,1.234,4.666v0.344h0.069V402.6h0.069v0.275H300.1v0.274h0.069v0.275h0.068V403.7c0.415,1.211.636,2.623,1.029,3.843q0.1,0.582.206,1.166c0.446,1.3.655,2.816,1.1,4.117q0.067,0.447.137,0.892c0.194,0.595.347,1.33,0.549,1.922,0.023,0.183.045,0.366,0.068,0.549,0.264,0.768.425,1.7,0.686,2.47l0.069,0.618c0.571,1.754.874,3.733,1.44,5.489v0.343h0.069v0.275c0.11,0.323.233,0.774,0.343,1.1v0.274c0.142,0.414.271,0.958,0.412,1.372q0.033,0.274.068,0.549c0.172,0.5.317,1.142,0.48,1.647v0.343c0.455,1.4.694,3,1.167,4.392q0.273,1.269.548,2.539c0.173,0.5.309,1.143,0.48,1.647l0.069,0.549c0.2,0.591.357,1.326,0.549,1.921v0.343c0.542,1.664.81,3.559,1.372,5.215q0.035,0.309.068,0.618c0.194,0.594.348,1.329,0.549,1.921l0.069,0.549c0.294,0.858.463,1.886,0.754,2.745l0.069,0.617c0.542,1.666.834,3.548,1.372,5.215v0.343h0.069v0.275c0.11,0.323.232,0.774,0.343,1.1q0.033,0.274.068,0.549c0.172,0.5.309,1.143,0.48,1.647q0.378,1.68.755,3.362c0.2,0.592.347,1.329,0.549,1.921,0.023,0.183.045,0.366,0.068,0.549,0.172,0.5.317,1.142,0.48,1.647v0.343c0.572,1.755.874,3.733,1.441,5.49l0.069,0.617c0.232,0.68.385,1.516,0.617,2.2l0.069,0.549c0.232,0.68.4,1.511,0.617,2.2q0.1,0.584.206,1.166c0.141,0.414.27,0.959,0.411,1.373l0.069,0.549c0.571,1.666.8,3.614,1.372,5.283q0.137,0.687.274,1.373h0.069q0.034,0.274.068,0.549h0.069v0.274h0.069v0.275h0.068v0.274h0.069v0.275h0.068v0.343c0.484,1.486.732,3.188,1.235,4.666V498.4H323.7v0.275h0.068v0.274h0.069v0.343H323.9v0.275c0.474,1.389.693,3,1.166,4.391,0.046,0.3.091,0.595,0.137,0.893,0.31,0.951.5,2.072,0.823,3.019,0.046,0.274.092,0.549,0.137,0.823,0.269,0.785.417,1.747,0.686,2.539l0.069,0.549c0.2,0.592.347,1.329,0.549,1.921,0.023,0.183.045,0.366,0.068,0.549,0.172,0.5.318,1.142,0.48,1.647v0.343c0.572,1.755.875,3.733,1.441,5.49v0.343h0.069v0.274H329.6v0.275h0.069v0.274h0.068v0.275c0.476,1.388.716,2.993,1.167,4.391q0.033,0.309.068,0.618c0.2,0.593.347,1.329,0.549,1.921q0.205,0.962.412,1.922l3.429,13.655v6.038H335.29v0.206h-0.069v0.206h-0.068v0.206h-0.069v0.206h-0.069v0.206h-0.068v0.2h-0.069v0.206H334.81v0.206h-0.069l-0.069.412H334.6v0.206h-0.069v0.206h-0.068v0.206H334.4V554.6h-0.069V554.8h-0.068l-0.069.412h-0.068v0.137h-0.069c-0.046.206-.091,0.412-0.137,0.618h-0.069v0.206h-0.068v0.205h-0.069v0.206h-0.068v0.206c-0.411,1.03-.73,2.223-1.167,3.225v0.206h-0.068v0.206H332.34v0.206h-0.068v0.206H332.2v0.206c-0.438,1.1-.769,2.363-1.235,3.431-0.023.137-.046,0.274-0.068,0.411h-0.069v0.206h-0.069V565.3h-0.068v0.206h-0.069v0.206h-0.068v0.206h-0.069v0.205h-0.069c-0.022.138-.045,0.275-0.068,0.412-0.656,1.641-1.129,3.436-1.784,5.078-0.023.137-.045,0.274-0.068,0.412H328.43v0.206h-0.069v0.205h-0.068v0.206h-0.069v0.206h-0.068v0.206h-0.069v0.206h-0.069v0.206H327.95V573.6h-0.069q-0.067.309-.137,0.617c-0.258.647-.5,1.412-0.754,2.059l-0.138.618c-0.936,2.345-1.6,4.926-2.538,7.273-0.046.206-.091,0.412-0.137,0.618h-0.069v0.206H324.04V585.2h-0.069v0.2H323.9v0.206h-0.069v0.206h-0.069c-0.022.137-.045,0.275-0.068,0.412h-0.069c-0.023.137-.046,0.274-0.068,0.411h-0.069c-0.046.206-.091,0.412-0.137,0.618h-0.069V587.4h-0.068V587.6h-0.069v0.206h-0.069v0.206h-0.068v0.206c-0.312.781-.58,1.689-0.892,2.47V590.9H322.05V591.1h-0.068v0.206h-0.069v0.2c-0.888,2.206-1.517,4.647-2.4,6.862-0.022.138-.045,0.275-0.068,0.412h-0.069v0.206h-0.068V599.2h-0.069V599.4h-0.069v0.205H319.1v0.206h-0.069v0.206h-0.068l-0.069.412h-0.069c-0.023.137-.045,0.274-0.068,0.412h-0.069v0.137h-0.068v0.206h-0.069v0.206h-0.069V601.6h-0.068V601.8h-0.069v0.206c-0.438,1.1-.769,2.363-1.235,3.431v0.206h-0.068v0.206h-0.069v0.206h-0.068v0.206h-0.069v0.205h-0.069v0.206H316.7l-0.069.412c-0.548,1.373-.965,2.889-1.509,4.254q-0.205.721-.412,1.441c-0.441,1.106-.793,2.325-1.234,3.431q-0.173.618-.343,1.235c-0.965,2.415-1.645,5.066-2.607,7.48-0.046.206-.091,0.412-0.137,0.618-0.259.646-.5,1.411-0.755,2.058q-0.067.309-.137,0.618h-0.069v0.137H309.36q-0.069.309-.137,0.618h-0.069v0.2h-0.069v0.206h-0.068V629.6h-0.069V629.8H308.88v0.206h-0.069l-0.069.412h-0.068q-0.206.72-.412,1.44c-0.516,1.292-.921,2.746-1.44,4.049l-0.412,1.441h-0.068v0.137h-0.069v0.206H306.2V637.9h-0.068v0.206h-0.069v0.206H306v0.2H305.93v0.206h-0.069v0.206h-0.068l-0.069.412c-0.655,1.641-1.129,3.436-1.783,5.078q-0.207.72-.412,1.441c-0.462,1.157-.838,2.469-1.3,3.637q-0.206.72-.412,1.441c-0.5,1.132-.84,2.474-1.3,3.636v0.206h-0.069v0.206h-0.068v0.206h-0.069V655.4h-0.069V655.6h-0.068v0.137H300.1c-0.046.206-.091,0.412-0.137,0.618h-0.069v0.205h-0.068v0.206h-0.069v0.206h-0.068v0.206h-0.069v0.206H299.55c-0.023.137-.045,0.274-0.068,0.412h-0.069V658h-0.068v0.206h-0.069v0.206h-0.069v0.206c-0.963,2.413-1.644,5.067-2.606,7.479l-0.069.412h-0.068v0.206H296.4v0.206h-0.069v0.206h-0.068v0.206h-0.069v0.205H296.12v0.206c-0.572,1.434-1,3.019-1.577,4.461l-0.069.411h-0.068v0.206h-0.069v0.206h-0.069v0.206H294.2v0.206h-0.069v0.206h-0.068v0.205h-0.069v0.138h-0.069V674.2h-0.068V674.4h-0.069v0.206H293.72v0.206h-0.069v0.206h-0.069v0.206h-0.068v0.206h-0.069c-0.023.137-.046,0.274-0.068,0.411-0.656,1.641-1.129,3.437-1.784,5.078l-0.069.412h-0.068v0.206h-0.069v0.206h-0.068v0.205H291.25v0.206h-0.069v0.206h-0.068v0.206h-0.069v0.206h-0.068v0.137h-0.069q-0.205.72-.412,1.441c-0.52,1.3-.925,2.757-1.44,4.049q-0.205.72-.412,1.441c-0.442,1.106-.795,2.329-1.234,3.431q-0.173.617-.343,1.235H287v0.206h-0.069v0.205H286.86v0.206h-0.069v0.206h-0.068v0.206h-0.069l-0.069.412h-0.068c-0.046.206-.092,0.411-0.137,0.617h-0.069v0.138h-0.069q-0.068.307-.137,0.617c-0.258.647-.5,1.412-0.754,2.059l-0.138.617c-0.963,2.412-1.644,5.066-2.606,7.48q-0.205.72-.412,1.441c-0.545,1.365-.961,2.881-1.509,4.254l-0.069.412h-0.068v0.206H280.48V714h-0.068v0.2h-0.069v0.206h-0.069v0.206h-0.068v0.206c-0.467,1.067-.8,2.335-1.235,3.431v0.206H278.9v0.206h-0.068v0.206h-0.069v0.205H278.7v0.206h-0.069v0.137h-0.069q-0.068.309-.137,0.618h-0.068v0.206h-0.069v0.206h-0.069v0.206h-0.068v0.205h-0.069v0.206h-0.068l-0.069.412h-0.069c-0.022.137-.045,0.275-0.068,0.412h-0.069q-0.067.309-.137,0.617c-0.91,2.279-1.562,4.79-2.469,7.068l-0.069.412h-0.069v0.206h-0.068V730.4h-0.069v0.2h-0.068v0.206h-0.069v0.206h-0.069v0.206h-0.068l-0.069.412h-0.068l-0.069.411c-0.746,1.871-1.309,3.966-2.058,5.833v0.206h-0.069v0.206H272.18V738.5h-0.069V738.7h-0.068v0.206h-0.069v0.206H271.9v0.206h-0.068l-0.069.412H271.7v0.206h-0.069v0.2h-0.069v0.206h-0.068v0.206h-0.069v0.206h-0.068l-0.069.412h-0.069c-0.022.137-.045,0.274-0.068,0.411h-0.069q-0.067.309-.137,0.618h-0.069v0.137h-0.068l-0.618,1.99H126.752q0.207-.72.412-1.441h0.069q0.067-.309.137-0.617c0.286-.714.537-1.551,0.823-2.265l0.069-.412h0.068v-0.205H128.4v-0.206h0.068v-0.206h0.069v-0.206H128.6v-0.206h0.068v-0.206c0.858-2.142,1.412-4.521,2.264-6.656l0.411-1.441c0.42-1.049.748-2.244,1.167-3.293v-0.206h0.068v-0.206h0.069v-0.206h0.068v-0.206h0.069v-0.274h0.069v-0.206h0.068v-0.206H133v-0.206h0.068l0.069-.412c0.553-1.384.957-2.937,1.509-4.323q0.171-.616.343-1.235c0.419-1.049.751-2.243,1.166-3.293,0.069-.3.138-0.6,0.206-0.893,0.312-.781.58-1.689,0.892-2.47v-0.206h0.068v-0.206h0.069v-0.2h0.069V711.8c0.66-1.653,1.124-3.493,1.783-5.147q0.173-.616.343-1.235h0.069v-0.274h0.068V704.94h0.069v-0.206h0.069v-0.206h0.068v-0.206h0.069c0.023-.137.046-0.274,0.068-0.411,0.312-.782.581-1.689,0.892-2.471,0.046-.206.092-0.411,0.137-0.617,0.607-1.519,1.041-3.216,1.647-4.735v-0.206H142.8v-0.206h0.069V695.47h0.068v-0.205h0.069v-0.206h0.069v-0.275h0.068l0.069-.412c0.258-.646.5-1.411,0.754-2.058v-0.206h0.069V691.9h0.069V691.7h0.068V691.49h0.069v-0.205c0.419-1.05.748-2.244,1.166-3.294v-0.206h0.069v-0.206h0.068v-0.206h0.069v-0.206c0.258-.646.5-1.411,0.754-2.058l0.069-.412h0.069v-0.274h0.068q0.171-.618.343-1.235c0.687-1.721,1.166-3.632,1.852-5.353,0.046-.206.092-0.411,0.137-0.617,0.313-.783.581-1.688,0.892-2.471q0.069-.342.137-0.686h0.069l0.069-.411h0.068v-0.206h0.069v-0.206h0.068v-0.206h0.069v-0.206h0.069V672.62h0.068l0.069-.411h0.068V672h0.069V671.8h0.069v-0.206h0.068v-0.206c0.259-.647.5-1.411,0.755-2.058,0.046-.206.091-0.412,0.137-0.618,0.5-1.251.873-2.66,1.372-3.911v-0.206h0.069v-0.206h0.068V664.18H153.3v-0.206h0.068v-0.206h0.069v-0.274h0.069c0.022-.137.045-0.275,0.068-0.412,0.258-.647.5-1.411,0.755-2.058q0.067-.309.137-0.618h0.069V660.2H154.6v-0.206h0.069v-0.206h0.068v-0.205h0.069v-0.206h0.068v-0.206h0.069l0.069-.412h0.068l0.069-.412c0.5-1.25.873-2.66,1.372-3.911V654.23h0.068v-0.206h0.069v-0.205h0.069v-0.206H156.8v-0.206h0.069v-0.275h0.068l0.069-.411c0.258-.647.5-1.412,0.755-2.059,0.022-.137.045-0.274,0.068-0.412H157.9v-0.205h0.068v-0.206h0.069v-0.206H158.1v-0.206h0.068v-0.206h0.069c0.023-.137.046-0.274,0.068-0.412h0.069v-0.2c0.58-1.452,1-3.077,1.578-4.529v-0.206h0.068v-0.206h0.069v-0.206h0.069v-0.206h0.068v-0.206H160.3v-0.274h0.068v-0.206h0.069v-0.206H160.5v-0.206h0.068v-0.206h0.069v-0.205h0.068l0.069-.412c0.553-1.385.957-2.938,1.509-4.323q0.171-.618.343-1.235c0.312-.781.58-1.689,0.892-2.471,0.046-.205.091-0.411,0.137-0.617h0.069c0.068-.3.137-0.595,0.2-0.892,0.312-.781.581-1.689,0.892-2.47q0.069-.309.137-0.618c0.661-1.653,1.125-3.493,1.784-5.146q0.171-.618.343-1.236h0.069v-0.274h0.068v-0.206h0.069v-0.206h0.068V621.43h0.069v-0.2H167.5v-0.206h0.068v-0.206h0.069q0.067-.309.137-0.618c0.285-.714.538-1.55,0.823-2.264q0.069-.309.137-0.618c0.553-1.385.957-2.938,1.509-4.323v-0.206h0.069v-0.205h0.069v-0.206h0.068v-0.206h0.069v-0.206h0.068l0.069-.48c0.443-1.118.79-2.383,1.235-3.5v-0.206h0.068v-0.206h0.069v-0.206H172.1v-0.205h0.068v-0.206c0.5-1.251.873-2.66,1.372-3.912l0.069-.411h0.068v-0.206h0.069v-0.206h0.069v-0.206h0.068V601.8h0.069V601.6h0.068v-0.274h0.069v-0.206h0.068v-0.206h0.069v-0.206h0.069V600.5c0.5-1.251.873-2.661,1.372-3.912v-0.206h0.068v-0.205H175.8v-0.206h0.068v-0.206h0.069v-0.206c0.5-1.251.874-2.66,1.372-3.911,0.046-.229.091-0.458,0.137-0.686h0.069q0.171-.618.343-1.236c0.66-1.653,1.124-3.493,1.783-5.146l0.138-.618c0.311-.781.58-1.689,0.891-2.47v-0.206h0.069v-0.206h0.068v-0.206h0.069v-0.2h0.069V580.4h0.068l0.138-.617c0.258-.647.5-1.412,0.754-2.059v-0.206h0.069v-0.206h0.068V577.1h0.069v-0.2h0.068v-0.206c0.527-1.318.916-2.8,1.441-4.117q0.069-.309.137-0.618h0.069V571.75h0.068v-0.206h0.069v-0.206h0.069v-0.2H184.1v-0.206h0.069v-0.206h0.068l0.069-.412h0.069v-0.274h0.068v-0.206h0.069v-0.206h0.068v-0.206h0.069v-0.206c0.446-1.116.79-2.382,1.235-3.5q0.171-.618.343-1.235c0.526-1.318.915-2.8,1.44-4.118q0.069-.342.137-0.686c1.2-3.3,2.235-6.782,3.43-10.087,0.069-.3.138-0.6,0.206-0.892,0.741-1.854,1.25-3.909,1.989-5.764v-0.206H193.5v-0.206h0.069v-0.205h0.068v-0.206c0.339-.848.625-1.827,0.961-2.676,0.023-.161.045-0.321,0.068-0.481,1.2-3.3,2.235-6.782,3.43-10.087,0.069-.3.137-0.594,0.206-0.892,0.74-1.854,1.25-3.909,1.989-5.764V522h0.069v-0.206h0.069v-0.2H200.5v-0.206c0.339-.848.625-1.827,0.96-2.676l0.069-.481h0.069v-0.206h0.068v-0.2h0.069V517.61H201.8V517.4h0.069V517.2c0.58-1.452,1-3.077,1.578-4.529,0.046-.206.091-0.412,0.137-0.617,0.285-.715.538-1.551,0.823-2.265q0.069-.309.137-0.617h0.069v-0.206h0.069v-0.206h0.068v-0.206h0.069v-0.206h0.068V508.14h0.069v-0.206h0.069c0.068-.3.137-0.594,0.205-0.892,0.874-2.187,1.46-4.6,2.333-6.793,0.022-.137.045-0.274,0.068-0.412H207.7v-0.206h0.068v-0.2h0.069V499.22H207.9v-0.206h0.068v-0.206h0.069V498.6h0.068V498.4h0.069q0.344-1.166.686-2.333c0.794-1.988,1.334-4.187,2.127-6.175,0.022-.138.045-0.275,0.068-0.412h0.069V489.27H211.2v-0.206h0.069v-0.206h0.069v-0.206H211.4v-0.2h0.069v-0.206h0.068l0.069-.412h0.069v-0.206h0.068v-0.206h0.069v-0.206h0.068v-0.274h0.069c0.046-.206.091-0.412,0.137-0.618,0.392-.982.706-2.105,1.1-3.087q0.171-.618.343-1.236c0.606-1.519,1.041-3.215,1.646-4.734,0.046-.229.091-0.458,0.137-0.687,1.2-3.3,2.235-6.781,3.43-10.087q0.069-.342.137-0.686c0.526-1.318.915-2.8,1.441-4.117v-0.206h0.068v-0.206h0.069v-0.205h0.069v-0.206h0.068v-0.206c0.473-1.184.832-2.522,1.3-3.706v-0.2h0.068v-0.206h0.069v-0.206H222.1v-0.206h0.069v-0.275h0.069c0.022-.137.045-0.274,0.068-0.411h0.069v-0.206h0.068v-0.206h0.069v-0.206h0.069v-0.206h0.068v-0.205h0.069v-0.206h0.068l0.138-.618c0.526-1.318.915-2.8,1.44-4.117q0.171-.618.343-1.235c0.259-.647.5-1.412,0.755-2.059,0.023-.137.045-0.274,0.068-0.412H225.6v-0.274h0.069v-0.206h0.068v-0.206h0.069v-0.206h0.068v-0.2h0.069c0.023-.138.046-0.275,0.068-0.412,0.312-.781.581-1.689,0.892-2.47q0.069-.309.137-0.618c0.634-1.586,1.083-3.354,1.715-4.941v-0.2h0.069v-0.206H228.9V435.61h0.068V435.4h0.069V435.2H229.1v-0.274h0.069v-0.206h0.069v-0.206h0.068v-0.206h0.069c0.023-.137.045-0.274,0.068-0.412,0.795-1.988,1.334-4.186,2.127-6.175l0.069-.412h0.068V427.1h0.069V426.9h0.068v-0.206h0.069v-0.205h0.068v-0.206h0.069v-0.206h0.069c0.023-.137.045-0.275,0.068-0.412h0.069v-0.206h0.068v-0.206h0.069v-0.2h0.069v-0.206h0.068v-0.275H232.6v-0.206h0.068V424.15h0.069v-0.2h0.069v-0.206h0.068v-0.206c0.553-1.385.957-2.938,1.509-4.323l0.138-.618c0.285-.714.538-1.55,0.823-2.264q0.068-.309.137-0.618h0.069V415.5h0.068V415.3h0.069v-0.206h0.068v-0.206h0.069v-0.206h0.069v-0.206h0.068V414.2h0.069V414H236.1v-0.206h0.069v-0.206h0.069v-0.206H236.3v-0.206c0.553-1.384.957-2.937,1.509-4.323q0.069-.308.137-0.617c0.286-.714.539-1.55,0.824-2.265q0.068-.308.137-0.617h0.069v-0.206h0.068v-0.206h0.069v-0.206h0.068v-0.206h0.069v-0.2h0.068v-0.206h0.069v-0.275h0.069q0.067-.309.137-0.617c0.392-.983.706-2.106,1.1-3.088q0.172-.618.343-1.235c0.607-1.519,1.041-3.216,1.647-4.735q0.068-.343.137-0.686c1.2-3.3,2.235-6.782,3.43-10.087v-0.275h0.068V382.91h0.069v-0.205h0.069V382.5h0.068v-0.206h0.069v-0.206h0.068v-0.206h0.069c0.046-.206.091-0.412,0.137-0.617,0.285-.715.539-1.551,0.823-2.265l0.138-.617c0.553-1.385.957-2.938,1.509-4.323v-0.206h0.068v-0.206h0.069v-0.206h0.069v-0.206h0.068v-0.206h0.069q0.067-.342.137-0.686c0.526-1.318.915-2.8,1.44-4.117l0.138-.618c0.258-.647.5-1.411,0.754-2.058l0.069-.412c0.258-.647.5-1.411,0.754-2.059l0.069-.411h0.069v-0.275h0.068q0.173-.616.343-1.235c0.66-1.653,1.125-3.493,1.784-5.146,0.046-.206.091-0.412,0.137-0.618,0.312-.781.58-1.689,0.892-2.47v-0.206H256.4v-0.206h0.069v-0.206h0.069V352.1h0.068v-0.274h0.069c0.023-.137.045-0.275,0.068-0.412h0.069v-0.206h0.068V351h0.069v-0.2h0.069v-0.206h0.068v-0.206h0.069c0.023-.137.046-0.275,0.068-0.412h0.069c0.046-.206.092-0.411,0.137-0.617,0.874-2.188,1.46-4.606,2.333-6.794v-0.2h0.068v-0.206H259.9v-0.206h0.068v-0.206h0.069v-0.275c1.2-3.3,2.235-6.781,3.43-10.087q0.1-.446.206-0.892c0.74-1.854,1.25-3.909,1.989-5.764v-0.2h0.069V324.31H265.8V324.1h0.069V323.9c0.339-.848.625-1.827,0.96-2.676l0.069-.481h0.068q0.173-.616.343-1.235c0.607-1.519,1.041-3.215,1.647-4.734q0.067-.309.137-0.618c0.312-.782.58-1.688,0.892-2.47,0.023-.137.045-0.275,0.068-0.412h0.069v-0.206h0.068V310.86h0.069v-0.206h0.069V310.38H270.4v-0.206h0.069v-0.206h0.068v-0.206H270.6v-0.2h0.069v-0.206h0.068v-0.206h0.069v-0.206h0.068l0.069-.412h0.069v-0.206h0.068v-0.205h0.069V307.91h0.068V307.7h0.069V307.5h0.069v-0.206h0.068l0.069-.412h0.068v-0.137l0.138-.068v-0.206h0.068v-0.206h0.069v-0.206H271.9v-0.206h0.069l0.069-.412h0.068v-0.205h0.069v-0.206h0.068v-0.206h0.069v-0.206h0.069V304.41h0.068V304.2h0.069V304h0.068v-0.2h0.069v-0.206h0.069v-0.206H272.8v-0.206h0.069c0.023-.137.046-0.274,0.068-0.412A2.815,2.815,0,0,0,273.14,302.283Z"/>
</svg>
